<svg xmlns="http://www.w3.org/2000/svg" viewBox="0 0 447.8 199.663">
  <path fill="#231f20" d="M444.48 102.94c-.072.716-.287 1.36-.644 1.93-.36.574-.984 1.057-1.876 1.448-.895.395-2.11.697-3.646.912-1.538.215-3.414.32-5.63.32-2.29 0-4.183-.105-5.684-.32-1.5-.215-2.7-.517-3.59-.912-.896-.39-1.52-.874-1.88-1.448-.356-.57-.57-1.214-.64-1.93L418.1 5.576c0-.93.215-1.75.644-2.468.43-.712 1.196-1.303 2.305-1.768 1.1-.465 2.6-.805 4.5-1.02 1.89-.214 4.27-.32 7.13-.32 2.86 0 5.21.125 7.07.374 1.86.25 3.34.607 4.45 1.072 1.11.465 1.89 1.036 2.36 1.715.46.68.69 1.49.69 2.42l-2.79 97.37zm3.324 31.42c0 2.93-.234 5.4-.698 7.4-.465 2-1.286 3.61-2.465 4.825-1.18 1.215-2.73 2.09-4.66 2.626-1.93.54-4.36.81-7.29.81s-5.38-.27-7.34-.8c-1.97-.53-3.52-1.41-4.66-2.62-1.14-1.21-1.95-2.82-2.41-4.82-.46-2-.69-4.47-.69-7.4 0-3 .23-5.52.7-7.56.47-2.03 1.27-3.68 2.42-4.93 1.15-1.25 2.7-2.14 4.67-2.68 1.97-.53 4.41-.8 7.35-.8 2.93 0 5.36.27 7.29.81 1.93.54 3.49 1.43 4.67 2.68 1.18 1.25 2 2.9 2.47 4.93.47 2.04.7 4.56.7 7.56"/>
  <path fill="#ed1c24" d="M447.804 194.348c0 2.922-2.393 5.314-5.315 5.314H5.31c-2.92 0-5.313-2.392-5.313-5.312v-27.835c0-2.924 2.39-5.315 5.314-5.315h437.18c2.92 0 5.32 2.39 5.32 5.315v27.835"/>
  <text fill="#fff" style="-inkscape-font-specification:Frutiger-Black" transform="matrix(1.25 0 0 1.25 15.75 190.25)" font-weight="900" font-size="24.587" font-family="Frutiger">
    <tspan x="0 16.646 32.405 45.437 60.705 69.163 82.685 91.438 104.469 116.124 132.375 144.029 158.806 175.058 183.81 202.694 211.643 223.789 239.548 251.153 268.29 283.558 294.72 303.178 318.938" y="0">Basels starke Alternative</tspan>
  </text>
  <path fill="#231f20" d="M330.098 94.17l19.623-58.976h.11l19.63 58.976H330.1zm-176.884 25.187c-3.29 3.717-6.525 6.54-9.705 8.47-3.19 1.932-6.67 2.895-10.46 2.895-4.51 0-8.03-1.142-10.56-3.43-2.54-2.287-3.81-5.433-3.81-9.437 0-2.36.44-4.45 1.34-6.273.89-1.822 2.3-3.377 4.23-4.664 1.93-1.287 4.43-2.252 7.5-2.896 3.07-.643 6.79-.965 11.15-.965h10.3v16.3zm-83.674-2.325c-1.11 2.396-2.646 4.397-4.61 6.004-1.97 1.61-4.29 2.827-6.97 3.646-2.682.824-5.99 1.234-9.92 1.234H27.666v-39.46h16.728c5.147 0 9.33.465 12.546 1.393 3.217.93 5.86 2.25 7.935 3.96 2.073 1.71 3.646 3.84 4.718 6.38 1.073 2.54 1.61 5.41 1.61 8.63 0 3.07-.556 5.81-1.664 8.2zM27.666 31.836h14.262c4.36 0 7.845.395 10.455 1.18 2.61.786 4.77 1.914 6.487 3.378 1.716 1.466 3.003 3.308 3.86 5.522.858 2.218 1.288 4.72 1.288 7.506 0 2.504-.394 4.88-1.18 7.132-.788 2.252-1.984 4.218-3.592 5.898-1.61 1.68-3.63 3.002-6.06 3.967-2.43.96-5.683 1.44-9.757 1.44H27.66V31.83zm387.465 112.65c-.21-1.5-.75-3.537-1.6-6.112l-42.9-124.41c-.42-1.36-.94-2.43-1.55-3.22-.61-.785-1.6-1.374-3-1.77-1.39-.39-3.34-.64-5.84-.75-2.5-.105-5.86-.16-10.08-.16-3.64 0-6.58.055-8.79.16-2.22.11-3.95.36-5.2.75-1.25.396-2.16.967-2.73 1.717-.57.76-1.07 1.74-1.5 2.95l-38.9 113.24c-3.83-.14-6.54-1.43-8.08-3.88-1.64-2.61-2.46-6.52-2.46-11.74V68.02h20.91c1.36 0 2.4-.84 3.11-2.52.72-1.68 1.07-4.487 1.07-8.42 0-2.073-.09-3.823-.27-5.255-.17-1.428-.44-2.555-.8-3.378-.36-.82-.8-1.41-1.34-1.77-.54-.355-1.16-.535-1.88-.535h-20.81V23.1c0-.714-.21-1.357-.64-1.93-.43-.572-1.14-1.055-2.14-1.447-1-.393-2.38-.68-4.13-.858-1.75-.18-3.95-.27-6.6-.27-2.57 0-4.73.09-6.48.27-1.754.18-3.15.465-4.18.858-1.04.392-1.755.875-2.15 1.448-.39.58-.586 1.22-.586 1.93v23.04h-13.79c-1.517-.69-3.336-1.35-5.48-1.95-2.29-.64-4.844-1.18-7.667-1.61-2.825-.43-5.737-.64-8.74-.64-6.005 0-11.42.75-16.245 2.26-4.822 1.5-8.92 3.61-12.28 6.33-3.36 2.72-5.93 5.99-7.72 9.81-1.79 3.83-2.68 8.03-2.68 12.6 0 4.51.66 8.37 1.98 11.58 1.33 3.22 3.08 5.97 5.26 8.26 2.18 2.29 4.646 4.22 7.4 5.79 2.75 1.58 5.57 2.97 8.47 4.18 2.89 1.22 5.72 2.33 8.47 3.33 2.75 1.01 5.218 2.08 7.4 3.22 2.18 1.15 3.93 2.49 5.25 4.02 1.326 1.54 1.988 3.38 1.988 5.52 0 1.86-.36 3.51-1.07 4.94-.714 1.43-1.77 2.97-3.16 3.9-1.395.93-3.04 1.65-4.934 2.15-1.9.5-4.06.75-6.49.75-3.86 0-7.31-.46-10.35-1.39-3.04-.92-5.7-1.93-7.99-3-1.815-.85-3.383-1.64-4.724-2.37-1.69-1.01-3.37-2.16-4.935-3.47-1.442-1.21-2.7-2.39-3.813-3.52V79.7c0-6.58-.79-12.26-2.36-17.05-1.57-4.79-4.07-8.704-7.5-11.744-3.43-3.04-7.81-5.29-13.133-6.756-5.325-1.466-11.74-2.2-19.25-2.2-4.22 0-8.31.34-12.275 1.02-3.965.68-7.63 1.555-10.99 2.626-3.36 1.075-6.29 2.237-8.79 3.487-2.503 1.252-4.254 2.397-5.254 3.432-1 1.034-1.68 2.195-2.034 3.482s-.53 3.04-.53 5.25c0 1.65.11 3.15.32 4.507.215 1.36.52 2.504.91 3.433.39.927.897 1.645 1.5 2.144.61.5 1.308.75 2.096.75 1.14 0 2.63-.5 4.45-1.5 1.82-1 4.09-2.1 6.81-3.32 2.717-1.21 5.84-2.32 9.38-3.32 3.54-1 7.56-1.5 12.067-1.5 3.432 0 6.31.36 8.633 1.08 2.32.72 4.18 1.82 5.58 3.32 1.393 1.5 2.393 3.38 3 5.63.61 2.26.913 4.88.913 7.88v5.8h-9.33c-8.51 0-15.98.65-22.41 1.93-6.436 1.29-11.816 3.27-16.14 5.95-2.264 1.4-4.225 3.01-5.9 4.8-.31-1.27-.66-2.51-1.104-3.69-1.43-3.78-3.374-7.09-5.84-9.92-2.468-2.82-5.36-5.12-8.688-6.91-3.324-1.78-6.95-3.04-10.88-3.75 3.07-1.14 5.8-2.64 8.2-4.5 2.39-1.86 4.41-4 6.06-6.44 1.64-2.43 2.89-5.13 3.75-8.094.86-2.966 1.287-6.13 1.287-9.49 0-6.005-1.073-11.22-3.22-15.656-2.144-4.43-5.236-8.097-9.274-10.99-4.04-2.9-9.007-5.06-14.904-6.49-5.9-1.43-13.1-2.145-21.61-2.145H8.365c-2.36 0-4.34.7-5.95 2.09C.81 14.2 0 16.47 0 19.615V140.57c0 3.146.805 5.415 2.413 6.81 1.608 1.392 3.592 2.09 5.95 2.09h36.89c5.575 0 10.63-.34 15.172-1.02 4.54-.676 8.81-1.73 12.814-3.162 4-1.43 7.66-3.252 10.99-5.47 3.32-2.213 6.18-4.86 8.58-7.933.44-.568.84-1.167 1.25-1.766.25.71.51 1.42.81 2.1 1.71 3.86 4.13 7.09 7.23 9.7 3.11 2.61 6.79 4.57 11.04 5.89 4.25 1.32 8.91 1.98 13.99 1.98 6.15 0 11.74-1.18 16.78-3.54 5.04-2.36 9.52-5.65 13.45-9.87V144c0 1.003.3 1.79.91 2.36.6.574 1.64.98 3.11 1.234 1.46.25 3.81.375 7.02.375 3 0 5.27-.13 6.81-.38 1.53-.25 2.66-.66 3.37-1.24s1.07-1.36 1.07-2.36v-2.9c2.99 1.73 7.88 4.3 13.04 5.84 8.36 2.48 17.38 2.85 19.294 2.85 5.935 0 11.437-.7 16.515-2.09 5.08-1.39 9.47-3.48 13.19-6.27 3.72-2.79 6.6-6.26 8.63-10.4 2.04-4.15 3.06-8.94 3.06-14.37 0-4.36-.68-8.13-2.038-11.32-1.36-3.18-3.145-5.91-5.36-8.2-2.215-2.29-4.735-4.22-7.56-5.79s-5.68-2.95-8.58-4.13c-2.89-1.18-5.75-2.27-8.576-3.27-2.823-1-5.343-2.08-7.56-3.22-2.215-1.14-4.003-2.47-5.36-3.97-1.36-1.5-2.04-3.36-2.04-5.58 0-1.43.285-2.77.86-4.02.57-1.25 1.43-2.35 2.575-3.28 1.14-.93 2.606-1.647 4.394-2.148 1.783-.5 3.892-.75 6.323-.75 3.43 0 6.49.38 9.17 1.13 1.706.475 3.266.977 4.71 1.497.826.295 1.626.6 2.37.91 2.035.86 3.73 1.663 5.09 2.413 1 .55 1.94 1.04 3.47 1.04h10.22v47.31c0 5.86.61 10.94 1.826 15.23 1.212 4.29 3.11 7.85 5.68 10.67 2.57 2.828 5.82 4.92 9.76 6.277 1.1.38 4.85 1.57 9.49 1.87 3.672.23 7.91.46 11.84.48 6.956.03 12.95-.3 13.16-.32 1.893-.14 3.36-.62 4.396-1.01 1.04-.396 1.79-.93 2.256-1.61.46-.68.84-1.52 1.12-2.52l8.79-28.55h52.11l9.33 29.297c.29.93.646 1.68 1.075 2.25.43.575 1.18 1.02 2.25 1.34 1.07.324 2.62.54 4.66.645 2.04.11 4.88.16 8.52.16 3.5 0 6.258-.09 8.26-.266 2-.18 3.394-.643 4.18-1.394.787-.75 1.07-1.88.86-3.38"/>
</svg>
