<svg xmlns="http://www.w3.org/2000/svg" viewBox="0 0 2222.525 803.049">
	<defs>
		<style>
		@font-face {
			font-family: "DIN 1451 Mittelschrift";
		src:	local("DIN 1451 Mittelschrift"),
				url("https://bkb-skandal.ch/fonts/din1451.woff2"),
				url("https://bkb-skandal.ch/fonts/din1451.ttf");
		}
		</style>
	</defs>
	<g fill-rule="evenodd">
		<path stroke="#000" stroke-width="5.184" d="M464.674 206.422s-25.98 39.392-46.02 100.765c-20.04 61.372-27.18 82.44-34.17 148.528-6.99 66.088-1.414 85.216 7.44 137.14 8.856 51.922 49.05 94.426 49.05 94.426s19.847 22.04 45.653 38.95c14.182-10.92 31.407-21.11 50.796-26.82-12.587-5.48-27.164-14.13-41.06-27.83-34.952-34.46-65.796-90.19-68.982-118.31-2.06-18.22-11.68-46.7-3.76-118.31 7.92-71.6 18.07-102.28 32.98-157.99 14.92-55.7 26.73-64.85 26.73-64.85l-18.64-5.69z"/>
		<path stroke="#001f00" stroke-width="1.469" d="M460.923 214.102c-21.024-8.25-25.66 27.342-41.15 22.013-10.828-3.61-21.656-7.22-32.483-10.828l26.097 26.098c-4.44 5.025-6.91 15.967-15.052 9.896-7.1-2.36-14.2-4.73-21.298-7.1l18.64 24.24c-5.28 8.7-10.562 17.4-15.844 26.1l-21.437-7.45c5.51 4.9 13.844 8.53 17.603 14.22 1.68 20.13-25.64 6.05-32.52-3.03-2.51 7.14 8.18 10.62 11.48 16.15 5.05 5.37 10.47 10.32 16.48 14.61 1.61 10.45-3.81 11.18-12.34 7.62-9.93-4.54-11.08-3.84-2.58 3.56 5.19 5.44 12.32 9.87 11.6 18.34 1.51 10.84 4.64 21.34 7.04 32-9.76-4.36-17.52-11.22-24.11-19.55-10.27-11.11-21.19-21.76-27.48-35.77-5.11-8.1-1.55-18.58-2.84-27.73.22-12.36-1.22-25.16.04-37.24 9.92-16.69 19.59-33.55 32.89-47.85 7.79-11.61 21.62-16.45 32.88-24l19.36-10.1c-10.84-1.38-22.13.11-32.7-.6-11.41-6.2-22.03-14.5-33.92-19.39-13.11-4.17-2.65 3.14 2.55 7.89l23.05 20.49c-18.06-1.91-26.38 18.28-40.58 19.58-7.64.47-13.27-6.45-20.01-9.32L322 238.38c-9.38 7.17-10.18 34.68-16.265 33.68L285.68 248.6c6.235 10.706 14.45 20.915 19.49 31.924-1.16 11.34.253 23.376-6.81 33.11-7.676-8.647-15.155-28.74-21.69-41.94-7.348-18.886-18.54-41.73-6.3-60.913 10.55-23.21 24.79-45.86 47.75-58.52 9.886-7.18 20.186-13.68 32.69-13.99 12.927-3.49 25.73 2.64 38.515 4.42l54.803 16.44c-4-11.88-6.8-24.37-15.51-33.88-8.88-12.28-18.93-24.07-31.09-33.23l4.66-33.55-13.98 30.76-27.965-4.66c-1.082-3.7-.88-22.71-3.15-12.27-1.944 16.62-26.472 11.77-35.427 24.64-5.466 5.15-10.948-9.62-10.824-15.17-.73-4.49 2.468-19.56-3.748-14.65l-.914 51.96c-4.966 5.35-9.244 13.69-16.93 7.21-4.35-4.27-6.084-12.61-7.306-18.87.808-11.87-2.705-24.7 4.437-35.17 6.81-16.14 15.96-31.09 24.46-46.37 11.43-5.34 23-10.21 35.74-11.08 11.16-2.1 22.54 1.86 33.63 3.33 9.31 3.1 19.65 4.59 28.32 8.66 10.6 12.25 20.98 24.59 27.95 39.35 14.3 13.08 16.31 39.26 21.05 52.77 6.72-21.99 13.45-43.99 20.17-65.99 9.57-2.58 21.2-.78 27.96-9.32-6.09-2.22-17.09.37-19.86-5.12-2.37-8.25 6.99-13.54 10.25-20.37 2.95-7.07 12.57-4.46 18.52-3.15 11.24 5.04 9.17 2.17 1.02-4.33-7.13-5.45-11.96-10.02.38-8.04 7.89.35 16.59-1.97 22.62 4.55 17.32 12.02 35.86 22.96 52.43 35.65 5.12 10.34 11.56 20.27 11.48 32.22.35 5.72 4.76 20.238-2.69 9.02-6.88-7.97-12.34-17.07-18.63-25.51-7.34-.09-15.95 2.16-18.43-6.88-4.8-9.75-7.09-9.5-6.68 1.54-4.97-1.3-12.26-7.12-18.12-10.15 2.77 3.12 10.14 9.74 14.67 14.21 10.01 4.8-.39 10.06-4.44 15.18-5.38 4.05-8.61 13.67-16.63 10.86-4.66.49-19.7-3.18-17.52.06 3.29 4.98 16.21 8.35 12.2 14.55l-33.59 54.78c18.38-7.862 32.54-23.402 52.46-27.62 31.41-8.36 67.09-7.74 95.3 10.05 13.96 8.67 29.17 16.917 36.95 32.02 5.59 7.59 11.09 15.22 11.22 25.03 4.8 18.54.75 37.66.74 56.52-8.11-7.45-18.51-13.15-25.18-21.71l-13.96-31.42 4.66 26.1c-12.64-3.8-22.29-12.744-32.62-20.51-1.53-18.82-11.95-35.51-25.17-48.47 4.69 14.25 10.05 28.36 10.14 43.57-13.56-3.2-33.86-11.95-51.02-9.88-15.46 3.01-46.66 1.75-34.2 25.13 4.96 21.75-14.97 35.84-15.92 56.19-.61 11.47 4.59 28.33-5.57 11.77l-19.93-26.11c6.53-17.37 6.56-42.73-19.57-39.15z"/>
		<path d="M461.36 212.5c-21.023-8.25-25.66 27.342-41.15 22.013-10.827-3.61-21.655-7.22-32.482-10.828l26.097 26.098c-4.44 5.025-6.91 15.967-15.052 9.895l-21.298-7.1 18.64 24.235c-5.28 8.7-10.562 17.398-15.844 26.097l-21.43-7.456c5.51 4.9 13.85 8.528 17.61 14.215 1.68 20.12-25.63 6.04-32.51-3.03-2.51 7.13 8.18 10.61 11.49 16.14 5.05 5.37 10.48 10.32 16.48 14.61 1.62 10.45-3.81 11.18-12.34 7.62-9.93-4.54-11.07-3.84-2.58 3.56 5.2 5.43 12.32 9.87 11.61 18.34 1.51 10.83 4.64 21.34 7.04 31.99-9.75-4.37-17.52-11.23-24.1-19.55-10.27-11.12-21.18-21.76-27.48-35.78-5.1-8.11-1.54-18.59-2.84-27.74.22-12.36-1.22-25.17.04-37.24 9.92-16.69 19.6-33.56 32.9-47.85 7.8-11.62 21.62-16.45 32.89-24l19.36-10.11c-10.84-1.38-22.13.11-32.69-.6-11.4-6.2-22.02-14.5-33.92-19.39-13.11-4.17-2.64 3.14 2.55 7.89l23.06 20.49c-18.05-1.91-26.37 18.27-40.58 19.57-7.64.46-13.27-6.46-20-9.32l17.71 21.43c-9.38 7.17-10.18 34.68-16.27 33.68l-20.08-23.43c6.24 10.7 14.45 20.91 19.49 31.92-1.16 11.34.25 23.37-6.81 33.11-7.67-8.65-15.15-28.74-21.69-41.94-7.35-18.89-18.54-41.73-6.3-60.92 10.55-23.21 24.79-45.86 47.75-58.52 9.89-7.18 20.19-13.68 32.69-14 12.93-3.5 25.73 2.63 38.51 4.42l54.81 16.44c-4-11.88-6.8-24.37-15.51-33.88-8.88-12.29-18.93-24.08-31.09-33.23l4.66-33.56-13.98 30.75-27.96-4.66c-1.08-3.71-.88-22.72-3.15-12.28-1.94 16.62-26.47 11.77-35.42 24.63-5.46 5.15-10.94-9.63-10.82-15.18-.73-4.49 2.47-19.56-3.75-14.65l-.91 51.96c-4.96 5.35-9.24 13.68-16.93 7.21-4.34-4.28-6.08-12.61-7.3-18.87.81-11.88-2.7-24.7 4.44-35.18 6.81-16.15 15.96-31.09 24.46-46.37 11.43-5.34 23-10.21 35.74-11.08 11.16-2.11 22.54 1.86 33.63 3.33 9.308 3.09 19.65 4.58 28.32 8.65C419.65 37.3 430.03 49.64 437 64.4c14.296 13.07 16.3 39.25 21.04 52.76l20.14-65.97c9.567-2.586 21.2-.78 27.96-9.32-6.1-2.22-17.09.37-19.863-5.12-2.37-8.257 6.985-13.546 10.245-20.376 2.95-7.07 12.568-4.46 18.52-3.15 11.24 5.04 9.175 2.17 1.02-4.324-7.12-5.448-11.96-10.02.38-8.038 7.9.34 16.6-1.97 22.62 4.54 17.32 12.02 35.86 22.96 52.43 35.65 5.12 10.33 11.56 20.26 11.49 32.21.35 5.72 4.75 20.234-2.7 9.022-6.88-7.97-12.35-17.066-18.64-25.506-7.345-.09-15.957 2.15-18.435-6.88-4.794-9.75-7.09-9.51-6.673 1.53-4.97-1.3-12.26-7.12-18.12-10.154 2.77 3.12 10.14 9.74 14.67 14.206 10.01 4.8-.39 10.06-4.44 15.18-5.38 4.05-8.62 13.67-16.63 10.86-4.66.49-19.7-3.18-17.52.06 3.3 4.98 16.21 8.35 12.21 14.56l-33.6 54.78c18.38-7.86 32.54-23.4 52.456-27.614 31.41-8.36 67.09-7.736 95.3 10.05 13.956 8.67 29.17 16.916 36.95 32.024 5.59 7.59 11.09 15.22 11.22 25.03 4.795 18.54.75 37.66.74 56.51-8.115-7.45-18.52-13.15-25.184-21.72l-13.96-31.41 4.66 26.09c-12.64-3.8-22.29-12.745-32.62-20.51-1.525-18.82-11.95-35.51-25.165-48.464 4.68 14.25 10.04 28.36 10.13 43.57-13.56-3.204-33.86-11.95-51.03-9.884-15.45 3.01-46.66 1.75-34.2 25.124 4.96 21.75-14.97 35.833-15.91 56.19-.61 11.463 4.59 28.33-5.56 11.77L481 251.57c6.52-17.37 6.56-42.737-19.578-39.15z"/>
		<path stroke="#000" stroke-width="2.074" d="M545.026 670.104c-48.752 7.48-154.258 11.478-208.316-19.013-96.186-54.25-264.518 57.36-273.278 69.11 0 0 129.17 28.1 194.89 31.75 126.45 7.02 234.773 12.68 379.455-19.2 8.978-24.28-51.034-70.22-92.75-62.63z"/>
	</g>
	<g fill-rule="evenodd">
		<path stroke="#000" stroke-width="1.445" d="M1781.36 205.973l-18.646 5.695s11.816 9.147 26.73 64.85c14.912 55.702 25.055 86.38 32.975 157.99 7.92 71.607-1.71 100.09-3.77 118.308-3.19 28.11-34.03 83.848-68.99 118.308-13.9 13.7-27.11 20.295-39.69 25.78 19.39 5.714 35.24 17.955 49.42 28.874 25.8-16.907 45.65-38.946 45.65-38.947 0 0 40.19-42.5 49.05-94.42 8.85-51.92 14.43-71.05 7.44-137.14-6.99-66.08-14.13-87.15-34.17-148.53-20.04-61.37-46.02-100.76-46.02-100.76z"/>
		<path d="M1784.665 212.05c21.023-8.248 25.66 27.343 41.15 22.014 10.827-3.61 21.655-7.22 32.483-10.828-8.7 8.7-17.4 17.398-26.098 26.098 4.442 5.025 6.91 15.966 15.052 9.895l21.298-7.1-18.64 24.23c5.28 8.7 10.562 17.4 15.844 26.1l21.438-7.46c-5.51 4.9-13.845 8.53-17.604 14.21-1.68 20.12 25.632 6.04 32.517-3.03 2.51 7.13-8.18 10.61-11.485 16.14-5.05 5.37-10.475 10.32-16.477 14.61-1.615 10.45 3.808 11.18 12.338 7.62 9.94-4.54 11.08-3.84 2.59 3.56-5.19 5.43-12.32 9.87-11.6 18.34-1.51 10.83-4.64 21.34-7.04 31.99 9.76-4.37 17.52-11.22 24.11-19.55 10.27-11.12 21.19-21.76 27.48-35.77 5.11-8.11 1.55-18.59 2.84-27.74-.22-12.36 1.22-25.17-.04-37.24-9.92-16.69-19.59-33.56-32.89-47.85-7.79-11.62-21.62-16.45-32.88-24.01l-19.36-10.1c10.84-1.38 22.14.11 32.7-.6 11.41-6.2 22.03-14.5 33.93-19.39 13.1-4.17 2.64 3.14-2.55 7.88l-23.06 20.49c18.06-1.91 26.37 18.27 40.58 19.57 7.64.46 13.28-6.46 20.01-9.32l-17.71 21.44c9.39 7.18 10.18 34.68 16.27 33.69l20.09-23.44c-6.23 10.7-14.45 20.91-19.49 31.92 1.16 11.34-.25 23.37 6.81 33.11 7.68-8.65 15.16-28.74 21.69-41.94 7.35-18.89 18.54-41.73 6.3-60.92-10.55-23.21-24.79-45.86-47.75-58.52-9.88-7.18-20.18-13.69-32.69-14-12.92-3.49-25.73 2.64-38.51 4.42l-54.8 16.44c4-11.88 6.8-24.37 15.51-33.88 8.88-12.29 18.93-24.08 31.09-33.23l-4.66-33.56 13.98 30.76 27.96-4.66c1.08-3.7.88-22.71 3.15-12.27 1.95 16.62 26.47 11.77 35.43 24.64 5.47 5.15 10.95-9.63 10.83-15.18.73-4.49-2.47-19.56 3.75-14.65l.91 51.96c4.96 5.35 9.24 13.68 16.93 7.21 4.35-4.28 6.08-12.62 7.3-18.87-.8-11.88 2.71-24.71-4.43-35.18-6.81-16.15-15.96-31.09-24.46-46.37-11.43-5.35-23-10.21-35.74-11.08-11.16-2.11-22.54 1.86-33.62 3.33-9.31 3.09-19.65 4.58-28.32 8.65-10.6 12.25-20.98 24.59-27.95 39.35-14.3 13.07-16.31 39.25-21.05 52.76l-20.17-65.99c-9.56-2.58-21.2-.775-27.96-9.32 6.1-2.22 17.09.37 19.87-5.12 2.37-8.25-6.986-13.54-10.246-20.37-2.95-7.073-12.567-4.466-18.52-3.15-11.24 5.04-9.17 2.166-1.02-4.33 7.13-5.45 11.96-10.023-.38-8.04-7.89.35-16.59-1.97-22.62 4.55-17.32 12.02-35.86 22.97-52.42 35.65-5.12 10.34-11.56 20.27-11.49 32.22-.35 5.72-4.75 20.24 2.7 9.024 6.88-7.97 12.34-17.07 18.634-25.51 7.34-.09 15.953 2.155 18.43-6.88 4.8-9.75 7.09-9.503 6.676 1.536 4.97-1.29 12.262-7.12 18.123-10.15-2.77 3.12-10.14 9.74-14.67 14.2-10.01 4.8.397 10.06 4.45 15.18 5.38 4.05 8.62 13.668 16.63 10.85 4.66.5 19.71-3.18 17.52.06-3.29 4.98-16.2 8.35-12.2 14.56l33.585 54.8c-18.38-7.87-32.54-23.403-52.455-27.62-31.41-8.36-67.09-7.732-95.3 10.05-13.957 8.67-29.17 16.92-36.95 32.028-5.59 7.59-11.09 15.217-11.22 25.03-4.797 18.537-.75 37.66-.74 56.516 8.113-7.45 18.514-13.15 25.182-21.71l13.96-31.42-4.66 26.1c12.643-3.8 22.29-12.75 32.62-20.51 1.524-18.83 11.95-35.52 25.164-48.47-4.68 14.25-10.04 28.36-10.133 43.57 13.56-3.2 33.86-11.95 51.02-9.88 15.46 3.01 46.67 1.75 34.21 25.12-4.96 21.75 14.97 35.832 15.92 56.19.61 11.47-4.59 28.33 5.57 11.77l19.93-26.11c-6.53-17.37-6.56-42.73 19.57-39.14z"/>
		<path stroke="#000" stroke-width="2.074" d="M2049.216 668.582c-63.69-5.785-265.427 69.807-334.44 31.172-69.013-38.635-143.798-44.98-213.668 30.223 0 0-35.905 49.736-27.322 50.534 174.895 16.28 278.368 25.03 417.667 20.16 83.14-2.9 235.724-24.3 247.83-29.4 8.9-3.74-21.586-96.46-90.067-102.68z"/>
	</g>
	<path fill-rule="evenodd" stroke="#001f00" stroke-width="1.469" d="M1785.103 213.653c21.023-8.25 25.66 27.342 41.15 22.013 10.827-3.61 21.655-7.22 32.483-10.828l-26.098 26.098c4.442 5.025 6.91 15.967 15.052 9.895 7.1-2.36 14.2-4.73 21.298-7.09l-18.64 24.24c5.28 8.7 10.562 17.4 15.844 26.1l21.438-7.45c-5.51 4.9-13.845 8.53-17.603 14.22-1.68 20.13 25.63 6.04 32.516-3.03 2.51 7.14-8.18 10.62-11.485 16.15-5.05 5.37-10.475 10.32-16.477 14.62-1.61 10.45 3.81 11.18 12.34 7.62 9.93-4.53 11.08-3.84 2.58 3.56-5.19 5.43-12.32 9.87-11.6 18.34-1.51 10.84-4.64 21.35-7.04 32 9.76-4.36 17.52-11.22 24.11-19.55 10.28-11.11 21.19-21.76 27.48-35.77 5.11-8.1 1.55-18.58 2.84-27.73-.22-12.36 1.22-25.17-.04-37.24-9.92-16.69-19.59-33.55-32.89-47.85-7.79-11.62-21.62-16.45-32.88-24l-19.37-10.11c10.84-1.38 22.14.11 32.7-.6 11.41-6.2 22.03-14.5 33.92-19.39 13.11-4.17 2.65 3.14-2.55 7.89l-23.05 20.49c18.06-1.91 26.38 18.28 40.58 19.58 7.64.46 13.27-6.46 20.01-9.32l-17.71 21.43c9.39 7.18 10.18 34.68 16.27 33.69l20.09-23.43c-6.23 10.71-14.44 20.92-19.49 31.93 1.16 11.34-.25 23.38 6.81 33.11 7.68-8.65 15.16-28.74 21.69-41.94 7.35-18.88 18.55-41.73 6.3-60.91-10.55-23.21-24.79-45.86-47.75-58.52-9.88-7.18-20.18-13.68-32.69-13.99-12.92-3.5-25.73 2.64-38.51 4.42l-54.8 16.44c4-11.88 6.81-24.37 15.52-33.88 8.88-12.29 18.93-24.08 31.09-33.23l-4.66-33.56 13.98 30.76 27.96-4.66c1.09-3.7.88-22.72 3.15-12.28 1.95 16.62 26.48 11.77 35.43 24.64 5.47 5.156 10.95-9.623 10.82-15.173.73-4.49-2.47-19.554 3.75-14.65l.91 51.96c4.97 5.35 9.25 13.68 16.93 7.21 4.35-4.28 6.09-12.62 7.31-18.874-.81-11.88 2.71-24.7-4.44-35.18-6.81-16.14-15.96-31.09-24.45-46.367-11.43-5.346-23-10.21-35.74-11.085-11.16-2.1-22.54 1.87-33.63 3.33-9.3 3.1-19.65 4.58-28.32 8.66-10.6 12.256-20.98 24.597-27.95 39.36-14.3 13.07-16.3 39.25-21.04 52.76l-20.17-65.99c-9.57-2.585-21.2-.78-27.96-9.32 6.09-2.22 17.09.37 19.86-5.12 2.37-8.26-6.98-13.545-10.24-20.375-2.95-7.07-12.56-4.46-18.52-3.15-11.24 5.04-9.18 2.17-1.02-4.33 7.12-5.45 11.96-10.02-.38-8.04-7.89.35-16.59-1.97-22.62 4.55-17.32 12.02-35.86 22.965-52.43 35.65-5.12 10.337-11.56 20.267-11.48 32.21-.35 5.72-4.76 20.236 2.69 9.02 6.88-7.97 12.35-17.07 18.64-25.51 7.35-.09 15.96 2.15 18.44-6.88 4.8-9.75 7.09-9.502 6.68 1.537 4.98-1.3 12.27-7.125 18.13-10.16-2.77 3.12-10.14 9.747-14.67 14.21-10.01 4.8.4 10.06 4.45 15.176 5.38 4.046 8.62 13.664 16.63 10.853 4.67.49 19.71-3.18 17.53.053-3.29 4.98-16.21 8.35-12.2 14.56 11.2 18.26 22.39 36.53 33.59 54.79-18.38-7.865-32.54-23.405-52.455-27.62-31.41-8.36-67.09-7.74-95.3 10.05-13.952 8.67-29.17 16.916-36.95 32.02-5.59 7.59-11.09 15.22-11.22 25.03-4.79 18.54-.75 37.66-.74 56.52 8.12-7.45 18.52-13.15 25.19-21.71L1595.9 195l-4.66 26.1c12.644-3.8 22.29-12.746 32.622-20.508 1.524-18.825 11.947-35.513 25.165-48.47-4.685 14.25-10.046 28.364-10.137 43.57 13.56-3.202 33.86-11.95 51.025-9.88 15.46 3.01 46.665 1.75 34.204 25.124-4.96 21.75 14.96 35.837 15.91 56.194.61 11.465-4.59 28.33 5.56 11.77l19.92-26.112c-6.53-17.37-6.56-42.73 19.57-39.145z"/>
	<path d="M397.503 398.39c1.098-8.946 5.798-15 7.514-30.022 6.69-9.61 12.314-13.83 29.035-14.178l-1.363 11.686 61.83 55.3c34.01 30.42 71.74 52.16 76.61 52.843 4.86.69 12.37 8.09 15.77 11.93 8.2 9.26 152.65 59.41 233.12 68.89 258.44 30.44 353.38 65.19 779.59-41.23 8.48-2.12 22.4-11.28 22.4-11.28 12.32-6.2 22.3-18.56 23.98-22.04 1.68-3.48 14.69-7.06 19.85-7.06 5.19 0 11.03-3.5 21.82-12.59 19.07-16.07 28.1-22.35 29.6-21.16 1.5 1.2-1.62 4.75 3.46 1.09 5.08-3.65 3.65 5.26 14.72-3.75 4.86-3.96 25.03-15.29 45.28-28.41 25.76-16.7 35.96-25.72 33.9-29.97-2.23-4.61-9.88 4.02-39.25 24.4 0 0-16.73 12.27-25 18.52-38.88 29.36-34.82 21.49-34.82 21.49l59.41-44.53c35.13-26.35 45.51-41.53 34.41-40.57-35.75 28.34-46.58 40.42-85.36 74.38-52.31 46.63-12.87 5.65 35.45-40.63l49.65-47.56c.01-12.23-6.14-18.18 16.96-19.78 26.14 151.74 13.81 116.47-8.41 87.88-2.39 0-35.54 13.07-72.39 31.6-50.94 25.62-67.13 38.47-70.86 46.97-2.7 6.14-13.42 16.35-17.48 16.35-4.06 0-18.02 5.98-37.36 19.62-133.13 93.93-247.1 139.54-383.86 167.67-85.66 17.62-176.08 12.71-262.36-1.6-65.56-10.87-139.49-42.38-189.08-63.21C737 609.62 656.4 562.41 611.26 528.12c-18.78-14.27-37.953-22.76-43.51-23.39-6.197-.7-12.19-3.84-13.17-9.3-1.265-7.086-53.757-39.86-67.416-44.266l-59.15-19.07-19.043-.872c-8-4.998-8.25-22.554-11.47-32.842zm82.717 18.727c-25.41-20.846-47.07-37.967-48.135-38.045-1.063-.13-2.773 6.35-3.798 14.285-1.784 13.802-.59 15.114 27.476 30.24 16.137 8.698 31.12 15.756 33.297 15.684 2.177-.13-19.805-18.2-29.57-24.69-24.747-16.43-36.663-31.03-31.255-28.92 11.14 4.36 69.916 51.57 71.824 57.53.68 2.15-4.6-.22-1.5-.79 3.1-.56 13.12 3.47 16.52 6.71 3.39 3.25 7.33 5.91 8.75 5.91s-18.21-17.05-43.62-37.9zm7.635 30.776C477.105 440.47 432.463 416 429.673 416c-1.666 0-3.03 2.258-3.03 5.018 0 2.762 15.31 7.596 32.21 14.363 32.56 13.04 36.53 17.71 29.002 12.52zm1311.733-35.023c10.14-5.287 18.437-12.134 18.437-15.214 0-6.47-11.088 6.257-46.707 24.454-43.43 22.187-17.668 12.604 28.27-9.24z"/>
	<path d="M971.7 525.474L949.94 402.07l123.77-21.826 123.77-21.824 21.76 123.406L1241 605.23l-123.77 21.825-123.77 21.824zm237.92-42.705l-20.087-113.92-113.913 20.08-113.912 20.08 20.086 113.91 20.085 113.91 113.91-20.09 113.91-20.09zm-149.234 80.4c-21.952-24.77-40.01-45.6-40.13-46.28-.12-.68 9.742-26.41 21.917-57.18l22.135-55.94 57.218-10.12 57.22-10.12-.773 1.83c-.424 1-10.57 26.53-22.546 56.71l-21.774 54.88 3.294 3.71 40.435 45.54 37.143 41.82-57.113 10.07-57.113 10.07zm1157.88-47.8c1.545.89 3.308 3.7 3.843 5.44.84 2.76.66 5.03-3.1 48.09-2.07 23.72-3.26 42.59-3.49 43.4-.23.79-.66 2.08-.82 2.7-.61 2.37-4 4.95-6.36 5.34-.53.08-65.03-5.39-143.35-12.18l-142.39-12.33-1.47-1.1c-1.52-1.14-3.51-2.96-3.95-4.42-.87-2.85-.75-4.7 3.05-48.18 4.04-46.2 4.06-46.38 5.98-49.16.53-.77 2.39-1.78 3.34-2.33l1.71-1 142.7 12.39c137.83 11.97 142.75 12.42 144.28 13.3zm-288.02-23.21c-1.766.89-3.11 2.71-3.91 5.28-.46 1.47-1.333 10.47-4.348 44.88-4.208 48-4.107 45.69-2.126 48.81 1.9 2.98-10.535 1.68 145.612 15.28 99.37 8.66 142.194 12.25 143.188 12.02 1.935-.45 4.07-2.87 4.905-5.58.53-1.72 1.21-8.71 4.33-44.66 3.327-38.32 3.67-42.86 3.393-45.02-.448-3.49-2.084-5.69-5.088-6.83-.333-.13-64.47-5.8-142.525-12.6l-141.92-12.37zm286.32 26.66c1.407.83 2.384 2.26 2.982 4.36.44 1.54.32 3.14-3.31 44.55-3.596 41.04-3.796 43.02-4.494 44.61-.96 2.19-2.667 3.61-4.746 3.95-1.844.3-105.04-8.7-217.878-19.02l-65.835-6.02-1.19-1.26c-.655-.7-1.407-2.03-1.673-2.97-.475-1.69-.423-2.39 3.282-44.66 3.58-40.86 3.8-43.02 4.484-44.57.87-1.96 1.965-3.15 3.575-3.88 1.083-.49 15.645.72 142.433 11.83 118.808 10.4 141.407 12.48 142.37 13.05zm-283.726-18.98c-.482.55-.922 5-4.23 42.73-3.38 38.65-3.64 42.16-3.22 42.73.39.52 21.99 2.62 140.53 13.12 129.705 11.49 140.68 12.41 141.45 11.84l.29-.83 3.687-42.16c3.306-37.77 3.645-42.23 3.26-42.86-.39-.64-13.114-1.64-140.827-12.82-127.714-11.18-140.44-12.32-140.933-11.77z"/>
	<text x="175.349" y="1065.431" font-weight="bold" font-size="45" font-family="DIN 1451 Mittelschrift" transform="rotate(5 6838.32 21264.357)">Panama?</text>
	<path d="M148.244 574.107l14.84-1.298 8.826 100.9-14.838 1.3z"/>
	<path d="M2056.02 605.86l14.838 1.298-8.828 100.904-14.84-1.298zM292.313 456.806c1.675.608 4.36 2.758 5.19 4.382 1.313 2.57 1.595 5.094 5.372 48.157 2.08 23.72 3.653 43.062 3.568 43.894-.083.81-.82 1.69-.87 2.32-.19 2.44-2.54 5.56-4.79 6.35-.5.18-64.977 5.98-143.28 12.9L15.13 587.4l-1.636-.825c-1.692-.854-3.955-2.406-4.643-3.76-1.34-2.656-1.55-4.5-5.35-47.977-4.05-46.195-4.06-46.373-2.65-49.45.39-.85 2.04-2.065 2.87-2.772l1.51-1.283 142.68-12.576c137.82-12.15 142.75-12.557 144.41-11.954zM4.64 483.966c-1.586 1.19-2.593 3.21-2.936 5.885-.197 1.54.508 10.55 3.512 44.96 4.193 48.01 3.89 45.72 6.383 48.44 2.39 2.61-10.09 3.49 146.05-10.23 99.36-8.73 142.16-12.62 143.1-13.02 1.83-.77 3.51-3.53 3.86-6.34.22-1.78-.33-8.78-3.49-44.73-3.38-38.31-3.83-42.84-4.48-44.92-1.05-3.36-3.04-5.23-6.2-5.84-.35-.06-64.5 5.49-142.55 12.34L5.99 482.96zm286.597-23.462c1.53.576 2.742 1.815 3.695 3.782.7 1.444.862 3.042 4.477 44.446 3.58 41.043 3.73 43.026 3.32 44.718-.57 2.324-2 4.022-3.99 4.72-1.77.616-104.96 9.667-217.87 19.107l-65.88 5.508-1.39-1.037c-.77-.57-1.74-1.756-2.17-2.635-.76-1.575-.83-2.275-4.53-44.547-3.57-40.862-3.73-43.032-3.33-44.67.51-2.083 1.39-3.442 2.85-4.44.98-.67 15.53-2.007 142.32-13.083 118.81-10.38 141.42-12.263 142.47-11.87zM8.643 491.284c-.386.626-.047 5.084 3.254 42.817 3.382 38.66 3.73 42.17 4.248 42.65.475.45 21.993-1.43 140.553-11.68 129.73-11.21 140.698-12.21 141.357-12.9l.05-.67-3.688-42.16c-3.304-37.77-3.745-42.22-4.234-42.77-.494-.55-13.108.47-140.822 11.65C21.65 489.37 9.04 490.65 8.65 491.28z"/>
	<text x="206.614" y="788.06" font-weight="bold" font-size="45" font-family="DIN 1451 Mittelschrift" transform="rotate(-5 -2628.65 2488.64)">Guernsey</text>
</svg>
