<svg xmlns="http://www.w3.org/2000/svg" viewBox="0 0 272 108">
  <defs>
    <clipPath id="a">
      <path d="M71 .648h80V107.94H71zm0 0"/>
    </clipPath>
    <clipPath id="b">
      <path d="M.06 31H23v40H.06zm0 0"/>
    </clipPath>
  </defs>
  <path fill="#231F20" d="M141.652 30.63H79.23v62.92h62.922V30.63zm-.5 1v60.92H80.23V31.63h60.922"/>
  <g clip-path="url(#a)">
    <path fill="#918F8F" d="M150.914 2.328l-.418 3.356c-14.8 52.41-25.367 50.066-25.367 56.187 0 1.01 2.62 10.55 6.77 31.26h-12.54c-3.89-19.37-3.88-21.19-6.92-21.19-11.16 0-21.56 28.1-29.597 36.06-8.29-6.54-7.188-4.61-10.997-8.38 3.977-3.94 7.102-9.302 15.223-23.482 10.567-18.453 21.137-15.1 21.14-18.45.016-18.534-8.796-19.624-16.066-26.835l9.3-10.067c8.03 7.126 10.148 2.935 19.45 21.81 3.72-4.7 14.885-27.85 16.07-41.94 3.884.506 8.87 1.68 13.943 1.68"/>
  </g>
  <g clip-path="url(#b)">
    <path fill="#231F20" d="M0 31.055h22.05v6.52H7.958v9.284h13.266v6.52H7.957v17.13H0V31.05"/>
  </g>
  <path fill="#231F20" d="M25.59 70.516v-39.46h7.957V63.99H47.64v6.524H25.59m47.64-39.46v6.52H59.137v9.285h13.26v6.52h-13.26v10.61H73.78v6.52H51.177V31.05H73.23m76.485 22.594h7.96V93.11h-7.96zm13.87 0h13.32c6.525 0 11.22 2.434 11.22 10.004 0 4.26-2.043 7.52-5.97 8.625v.11c4.368.61 7.19 3.925 7.19 9.175 0 6.194-3.044 11.55-12.33 11.55h-13.43zm7.96 16.196h2.268c4.367 0 6.355-1.49 6.355-5.195 0-3.757-1.824-5.14-5.75-5.14h-2.87zm0 17.41h3.096c3.82 0 6.41-1.382 6.41-5.97 0-4.584-2.59-5.912-6.07-5.912h-3.424v11.884m22.768 5.858V53.648h7.958V86.59h14.095v6.523h-22.05m47.64-39.465v6.524H227.87v9.285h13.266v6.523h-13.27v10.61h14.646v6.523H219.91V53.648h22.05M252.9 80.79v1.16c0 3.702 1.05 6.077 5.25 6.077 2.433 0 4.753-1.547 4.753-4.863 0-3.594-1.823-4.918-7.073-6.742-7.074-2.434-10.336-5.363-10.336-11.938 0-7.683 4.7-11.61 12.216-11.61 7.074 0 12.215 3.04 12.215 10.614v1.106h-7.63c0-3.703-1.27-5.86-4.307-5.86-3.593 0-4.53 2.266-4.53 4.586 0 2.434.714 3.926 4.09 5.364l6.132 2.652c5.97 2.598 7.515 5.637 7.515 10.445 0 8.35-5.08 12.11-13.707 12.11-9.007 0-12.543-4.2-12.543-11.49v-1.6h7.96"/>
</svg>
