<svg xmlns="http://www.w3.org/2000/svg" viewBox="0 0 724.763 488.638">
  <path fill="#231f20" fill-rule="evenodd" d="M246.313 88.1c-.82-.044-1.483.07-2.025-.13-4.07-1.496-8.112-3.06-12.167-4.594-4.8-1.815-9.57-3.7-14.42-5.39-1.81-.632-3.67-1.95-5.74-.546-1.03.696-2.14 1.285-3.15 2.002-2.14 1.522-4.26 3.067-6.34 4.658-.87.665-1.8 1.442-.92 2.69 1.06 1.504 2.07 3.057 3.29 4.43.84.94 1.55 2.235 3.27 1.995 1.6-.223 3.22-.3 4.82-.406.95-.07 1.92.06 2.83-.12 2.16-.42 4.26-1.26 6.43-1.41 2.35-.17 4.68-.66 7.14-.17 2.65.54 4.97 1.49 6.75 3.33 1.1 1.13 1.86.89 2.87.21.42-.29.82-.59 1.23-.89 2.06-1.51 4.13-3.01 6.16-4.56.17-.13.03-.63.03-1.12zm-55.22 4.614c.207.296.087.142-.013-.023-1.903-3.12-3.69-6.07-8.32-5.98-3.886.08-7.795-1-11.682-.94-2.213.04-4.39-1.51-6.61-.13-1.215.75-2.47 1.45-3.733 2.13-4.4 2.37-8.545 5.02-11.92 8.75-2.32 2.57-2.21 3.37 1.243 4.46.165.05.4-.09.556-.03 1.232.47 2.29 1.22 2.48 2.54.305 2.12.554 4.27.577 6.41.03 2.37-.36 4.74-.32 7.11.07 3.66.46 7.31.51 10.97.06 4.59-.07 9.17-.15 13.76-.07 4.97.18 9.97-.36 14.89-.67 6.14-.04 12.32-1.16 18.46-.8 4.38-.66 8.94-.76 13.42-.02 1.11.14 2.5 1.68 2.99 2.57.82 5.1 1.78 7.71 2.43 1.2.3 2.56-.01 4.21-.05-2.82-3.33-5.21-6.13-7.56-8.96-.2-.24-.19-.71-.19-1.07.05-2.19.09-4.38.19-6.57.08-1.77.32-3.54.36-5.31.18-6.92-.26-13.85.78-20.76.5-3.27.37-6.62.59-9.93.27-4.1.59-8.21.9-12.31.42-5.39.82-10.79 1.32-16.18.08-.81.46-1.98 1.08-2.29 2.51-1.29 5.12-2.44 7.79-3.4 1.51-.54 2.83-2.22 4.76-1.04 1.35-1.57 3.18-1.05 4.9-1.08 1.06-.02 2.62.22 3.09-.33 1.41-1.68 2.32-3.74 3.55-5.56 1.37-2.02 2.88-3.96 4.57-6.27zM123.716 214.77c-.973-1.58-1.85-3.24-2.957-4.744-1.47-1.986-3.34-3.74-3.25-6.46.03-.942.06-1.9-.06-2.83-.27-1.94-.84-3.86-.94-5.805-.22-3.93-.11-7.88-.34-11.82-.15-2.65-.63-5.29-.98-7.93-.13-1-.33-1.99-.43-3-.24-2.32-.32-4.66-.7-6.96-.62-3.7-1.59-7.35-2.13-11.07-.49-3.38-.77-6.75-1.96-10.05-.91-2.49-.91-5.29-1.39-7.94-.15-.83-.6-1.61-.79-2.43-.44-1.87-.99-3.75-1.16-5.65-.21-2.3-1.43-4.64-.06-6.95.37-.63.98-1.12 1.36-1.75 1.5-2.5 4.37-4.13 4.92-7.26.03-.19.65-.37 1.01-.4 1.88-.13 3.82.04 5.63-.39 2.05-.48 4.35 1.14 6.18-.74.07.11.14.31.21.31 1.82.01 3.65-.01 5.47 0 .43 0 .86.08 1.61.15-.06.09.17-.23.14-.19 1.93.28 3.68.62 5.45.77.74.07 1.52-.42 2.26-.36 1.65.13 3.28.44 5.28.73-.64-2.1-.75-4.23-1.86-5.6-.99-1.23-3.01-1.82-4.69-2.35-1.76-.55-3.77-.39-5.47-1.05-4.25-1.64-8.67-2.11-13.14-2.15-5.85-.04-11.7.15-17.55.42-1.26.06-2.97.5-3.65 1.37-1.68 2.16-2.92 4.64-4.27 7.03-.78 1.37-1.32 2.89-2.21 4.18-2.53 3.71-5.18 7.33-7.85 11.07 2.18.83 3.9 1.55 5.67 2.15 2.12.72 4.25 1.42 6.41 1.98 1.86.49 3.83.93 4.05 3.13.43 4.48.63 8.98.93 13.47.12 1.87.2 3.74.36 5.61.33 3.91.68 7.81 1.05 11.71.41 4.3.75 8.61 1.32 12.9.39 2.89 1.38 5.72 1.66 8.61.48 4.86.61 9.76.87 14.64.16 2.92.26 5.84.48 8.75.04.43.53.93.94 1.21.93.62 1.95 1.12 2.93 1.66 1.98 1.07 4.03 2.03 5.92 3.23 1.75 1.11 3.4 2.14 5.64.9zm132.525-91.043c-.78-2.705-3.37-2.82-5.15-3.617-4.29-1.923-8.82-3.36-13.27-4.92-.74-.26-1.69.027-2.4-.27-2.14-.905-4.15-2.143-6.33-2.948-7.77-2.878-15.59-5.622-23.39-8.435-4.36-1.576-8.7-3.21-13.08-4.75-.52-.183-1.52-.175-1.75.134-1.04 1.41-1.87 2.97-2.81 4.45-1.18 1.87-2.42 3.71-3.58 5.59-.99 1.62-2.56 3.21-2.75 4.93-.53 4.84-.01 9.69 1.06 14.49.96 4.31 4.09 7.25 6.6 10.57 1.12 1.49 3.1 2.38 4.13 3.9 2.27 3.34 5.86 4.72 9.21 6.5 2.05 1.09 4.17 2.04 6.22 3.14 3.54 1.91 6.77 4.42 11.15 4.52 1.16.03 2.24 1.1 1.55 2.56-1.82 3.86-3.62 7.74-5.63 11.5-1.02 1.93-1.66 3.81-1.62 6 .09 3.87.18 7.74-.03 11.6-.12 2.43.67 4.3 2.26 6.06 1.8 2 3.46 4.12 5.24 6.15 1.88 2.15 3.74 4.32 5.77 6.33 1.8 1.78 3.86 3.32 5.76 5.01 1.28 1.15 2.46 2.41 3.74 3.57.42.38 1.03.56 1.55.84.24-.55.66-1.1.68-1.66.07-1.65-.53-3.5.04-4.94 1.67-4.21.19-8.07-.95-11.95-.63-2.17-1.77-4.2-2.81-6.61.93.22 1.56.36 2.18.5 2.85.67 5.67 1.45 8.55 1.94.78.14 2.09-.38 2.47-1 .3-.48-.3-1.67-.77-2.38-1.01-1.53-2.23-2.92-3.28-4.43-1.27-1.83-2.45-3.72-3.68-5.59-.9-1.37-1.81-2.73-2.6-3.93 2.21-1.43 3.89-2.64 5.68-3.65 2.45-1.39 4.91-2.64 6.6-5.05.92-1.3.43-1.46-.66-1.74-2.69-.7-5.39-1.41-8.08-2.14-.21-.06-.35-.38-.53-.58-1.89-2.13-4.49-3.33-7.03-4.29-1.62-.61-2.08-1.12-2.08-2.65 0-.49-.82-1.28-1.4-1.43-4.28-1.11-8.65-1.94-12.9-3.15-5.41-1.53-10.12-4.57-14.82-7.45-2.6-1.58-4.7-4.05-6.7-6.39-1.65-1.94-3.22-4.13-4.12-6.47-1.16-3.06-1.61-6.39-2.4-9.59-1.48-6.03-.37-11.69 2.39-17.04l30.45 9.95c-.38 3.25-.85 6.23-.96 9.21-.02.59 1.4 1.75 2.14 1.73 3.68-.06 7.44-.04 11.02-.77 4.22-.85 7.68.77 11.16 2.34 1.77.8 1.56 1.06 3.21.09 2.24-1.3 4.56-2.46 6.84-3.68zM78.58 219.3c-.85-3.826-1.807-7.505-2.44-11.236-.352-2.067-.14-4.22-.22-6.33-.152-3.975-.542-7.953-.452-11.922.144-6.22-2.17-11.223-6.94-15.312-.817-.7-1.514-1.88-1.657-2.92-.68-4.916-1.35-9.85-1.59-14.796-.09-1.915-1.34-3.665-.44-5.815.5-1.2-.42-2.91-.41-4.38.01-.67.59-1.59 1.18-1.94 1.02-.59 2.25-.87 3.42-1.19 1.15-.32 2.73-.17 3.43-.87 2.04-2.04 4.66-1.15 6.93-1.55 2.58-.46 5.36.16 8.05.33.39.02.78.15 1.16.25 2.1.51 4.19 1.03 6.83 1.67-.72-2.92-1.25-5.29-1.92-7.62-.16-.56-.72-1.24-1.26-1.41-2.84-.9-5.73-1.7-8.62-2.45-2.92-.77-5.9-1.28-8.88-1.82-2.45-.44-4.83-.61-7.23-.55-4.32.11-8.65.44-12.96.79-1.85.15-3.79.3-5.49.93-1.8.67-3.61 1.5-4.77 3.28-1.69 2.61-3.58 5.1-5.46 7.59-2.07 2.72-4.21 5.4-6.37 8.05-2.7 3.32-5.49 6.58-8.18 9.9-2.57 3.17-4.96 6.5-7.64 9.58-2.3 2.63-4 5.3-3.94 8.97.09 4.6-.07 9.23-.44 13.82-.36 4.47-.89 8.9.93 13.22.27.63.2 1.4.29 2.15.23-.01.54-.03 1.24-.06-.65 2.35-1.26 4.57-1.9 6.89 1.29-.43 2.34-.8 3.4-1.13 2.7-.82 5.39-1.66 8.1-2.42 1.85-.53 3.91-.62 5.53-1.51 1.37-.76 2.13-.57 2.85.42 1.45 1.98 2.77 4.04 4.35 6.37.53-.89 1.27-1.62 1.39-2.43.2-1.32-.03-2.7-.01-4.05 0-.38.14-.94.4-1.09 1.11-.62 2.3-1.12 3.2-1.55l-4.73-10.07-1.6-.11c-5.15-6.78-6-14.81-8.49-22.6 1.54.09 2.59.09 3.62.22 2.73.35 5.45.8 8.18 1.13.94.11 2.38.92 2.64-.63.3-1.82 0-3.72.16-5.57.1-1.23.55-2.42.89-3.85 2.03 1.33 2.8.98 2.93-.84.16-2.26.38-4.52.65-6.77.17-1.46.47-2.9.778-4.75 1.47 1.86 2.63 3.07 3.49 4.47 2.26 3.68 4.43 7.42 6.55 11.18 2.09 3.69 4.1 7.44 6.13 11.17 1.51 2.78 3.394 5.45 4.38 8.4.95 2.81.98 5.92 1.35 8.91.45 3.65.53 7.37 1.33 10.95.597 2.68 2.036 5.19 3.18 7.75.976 2.17 3.14 3.3 5.22 3.09zm53.585 61.92c-.38 1.596 1.05 4.122 2.47 6.672.375.672.326 1.61.79 2.172 1.707 2.056 3.487 4.062 5.367 5.967.686.7 1.732 1.52 2.607 1.51 4.89-.04 9.78-.29 14.67-.55 1.19-.06 2.42-.3 3.53-.71 1.83-.67 3.51-1.82 5.38-2.25 2.34-.53 3.9-2.1 5.54-3.45 2.94-2.43 4.75-5.74 6.42-9.1 1.73-3.48 3.63-6.85 4.44-10.75.3-1.47.28-3.55 2.2-4.5.85-.43 1.69-.93 2.43-1.52 1.29-1.03 2.48-2.19 3.77-3.24 1.07-.86 2.87-1.46 3.17-2.49.47-1.62 1.94-1.94 2.82-2.87 3.32-3.54 7.03-6.74 10.59-10.07-.05-2.5 2.73-3.1 3.61-5.18.96-2.3 3.15-4.08 4.6-6.21.94-1.39 1.94-2.95 2.19-4.54.55-3.42.78-6.91.84-10.38.03-1.79-.5-3.61-.93-5.38-.54-2.17-1.13-4.34-1.91-6.45-.57-1.54-1.08-3.5-2.29-4.33-2.43-1.67-5.26-2.87-8.05-3.96-3.61-1.41-7.42-1.58-11.25-.85-1.57.3-3.29.29-4.69.93-3.19 1.44-6.12 3.43-9.36 4.71-1.38.54-1.95 2.24-2.85 2.18-2.62-.18-4.01 1.79-5.57 2.9-2.93 2.07-5.25 4.97-7.73 7.61-.71.76-1.1 1.8-1.64 2.71-1.03 1.71-2.53 3.3-3.02 5.15-1.36 5.14-5.46 7.47-9.75 9.58-1.77.87-3.91.99-5.77 1.71-1.12.43-2.39 1.18-2.94 2.14-1.35 2.36-2.39 4.89-3.42 7.4-1.21 2.97-2.41 5.95-3.33 9.01-.69 2.31-.96 4.74-1.36 7.14-.39 2.29-.83 4.57-1.01 6.88-.29 3.67-.39 7.35-.64 12.5zM253.41 107.167l.964-.27c.91 1.912 1.98 3.76 2.653 5.734.346 1.01.21 2.32-.13 3.36-.45 1.37.2 1.6 1.215 1.48 2.582-.31 4.162 1 5.815 2.72 1.63 1.7 3.766 2.93 5.607 4.45 1.47 1.21 2.91 2.32 3.707 4.28 1.2 2.95 2.95 5.71 4.63 8.45 1.74 2.84 3.69 5.56 5.5 8.35.32.5.67 1.14.62 1.68-.31 3.11-.8 6.19-1.13 9.3-.46 4.42-.79 8.86-1.26 13.28-.46 4.47-1.11 8.93-1.5 13.4-.25 2.89-.12 5.8-.29 8.7-.29 4.89-.7 9.77-1.05 14.66-.21 2.99-.58 5.98-.57 8.96.02 3.52-1.38 6.43-3.28 9.29-2.01 3.03-3.72 6.25-5.69 9.31-.95 1.48-2.25 2.74-3.3 4.16-4.47 6.05-8.92 12.12-13.36 18.19-2.28 3.12-3.57 6.64-4.6 10.32-.79 2.86-2.06 5.59-3.06 8.4-.39 1.1-.63 2.24-.95 3.35-1.11 3.94-1.93 7.99-3.41 11.79-1.33 3.42-3.17 6.69-5.17 9.8-1.79 2.8-4.33 5.14-6.12 7.94-1.71 2.67-4.15 4.58-6.25 6.84-3.48 3.75-6.62 7.8-9.88 11.75-1.29 1.57-2.68 3.1-3.71 4.82-1.14 1.92-3.07 3.15-4.17 5.1-1.18 2.09-2.37 4.37-4.19 5.83-1.42 1.14-1.03 2.27-1.43 3.46-1.32 3.97-.57 8.05-.93 12.06-.33 3.71-.44 7.45-.66 11.17-.26 4.37-.62 8.73-.77 13.11-.13 3.92-.04 7.85-.04 11.77v3.27H65.99c.966-.35 2.042-.55 2.876-1.09 1.937-1.26 3.7-2.76 5.63-4.03 2.56-1.68 5.19-3.26 7.833-4.81 1.8-1.06 3.95-1.7 5.44-3.06 3.35-3.04 6.38-6.41 9.91-10.03-3.68-2.16-7-4.06-10.26-6.05-1.49-.9-2.8-2.13-4.78-1.64-.04.01-.12-.06-.15-.11-1.1-1.75-2.99-1.84-4.76-2.3-.5-.13-1.2-1.5-.99-1.91 1.05-2.09 2.34-4.07 3.61-6.04.84-1.31 1.8-2.55 2.82-3.99-5.38-2.75-10.31-5.34-15.31-7.83-2.52-1.25-5.15-2.28-7.68-3.52-.45-.21-1.02-1.11-.88-1.39 1.03-2.06 2.12-4.12 3.4-6.04 1.32-1.99 2.75-3.94 4.37-5.71 1.06-1.15.23-1.4-.45-2.06-1.33-1.28-3.22-1.64-4.75-2.53-2.36-1.36-4.94-2.54-7.38-3.9-1.2-.66-2.32-1.45-3.47-2.19.73-.5 1.31-.42 1.76-.62 2.17-.98 4.34-2 6.46-3.08 2.29-1.17 4.86-1.58 7.09-3.08 2.57-1.74 5.69-2.7 8.5-4.14 2.61-1.35 5.15-2.86 7.67-4.37 1.41-.85 2.74-1.84 4.09-2.78 2.28-1.59 4.59-3.14 6.81-4.8 1.6-1.2 3.25-2.4 4.55-3.87 2-2.28 3.74-4.76 5.52-7.21 1.48-2.03 2.33-4.31 2.21-6.84-.11-2.47-.14-4.97-.48-7.42-.17-1.19-.8-2.41-1.5-3.44-1.72-2.542-4.67-2.62-7.31-2.81-4.11-.3-8.25-.17-12.38-.23-3.06-.05-6.13-.14-9.2-.16-3.56-.025-7.13-.01-10.92-.01.92-1.8 1.68-3.1 2.25-4.47.65-1.584 1.05-3.266 1.7-4.856.49-1.21 1.33-2.3 1.78-3.52.8-2.21.31-3.28-1.74-4.09-1.22-.476-2.49-.847-3.76-1.187-3.75-1.01-7.51-2.02-11.28-2.96-4.49-1.12-8.93-2.574-13.72-1.49-1.1.25-2.36-.2-3.38-.31 1.4-2.56 2.64-4.79 3.84-7.04.1-.194.08-.66-.04-.72-.26-.13-.63-.17-.92-.094-3.08.82-6.15 1.678-9.24 2.498-1.41.37-2.93.49-4.24 1.06-3.71 1.61-7.37 3.336-10.99 5.14-1.16.58-2.71 1.35-3.06 2.365-.69 2.01-.86 4.24-.9 6.38-.08 4.47-.02 8.94.15 13.41.12 3.25.42 6.5.78 9.75.41 3.8.79 7.62 1.51 11.38.64 3.35 1.74 6.62 2.6 9.93.54 2.09.63 4.36 1.58 6.23 1.112 2.19 1.38 4.49 2.004 6.74.374 1.37.44 2.95 1.2 4.07 1.94 2.83 4.185 5.46 6.33 8.15 1.67 2.1 3.45 4.13 5.044 6.28 1.65 2.22 3.083 4.59 4.714 6.83 1.79 2.45 3.48 4.926 3.75 8.026.2 2.34.34 4.69.51 7.04.2-.12.4-.23.6-.34 1.07.59 2.22 1.09 3.2 1.804.78.575 1.75 1.33 1.94 2.146.48 2.12.48 4.34.83 6.49.78 4.76-.49 9.47-.096 14.27.35 4.19-.58 8.47-.83 12.72-.27 4.497-.417 9-.616 13.5H31.1c-.14-3.02-.29-6.034-.413-9.06-.29-6.93-.58-13.87-.834-20.804-.064-1.7.094-3.4.003-5.09-.22-4.07-.54-8.13-.78-12.19-.07-1.15.22-2.37-.085-3.436-.37-1.3-1.11-2.53-1.85-3.69-1.19-1.87-2.54-3.66-3.8-5.49-3.94-5.75-7.86-11.52-11.83-17.25-1.18-1.69-2.9-3.14-3.64-4.98-1.34-3.32-2.37-6.81-3.09-10.31-1.02-4.925-2.65-9.733-2.86-14.833-.23-5.43-.75-10.85-1.17-16.27-.24-3.07-.75-6.13-.77-9.19-.03-4.96.29-9.92.39-14.88.09-4.2.81-8.42-.39-12.6-.14-.46.11-1.02.14-1.54.08-1.98.18-3.96.22-5.94.03-2.21-.04-4.43.03-6.65.05-1.57.15-3.15.4-4.69.36-2.15.81-4.29 1.34-6.4.55-2.183 1.43-4.3 1.85-6.5.38-1.99.32-4.053.47-6.083.54-7.97.97-15.94 1.74-23.88.16-1.6 1.57-3.14 2.55-4.62 2.17-3.24 4.39-6.44 6.68-9.61 1.98-2.75 4.02-5.46 6.14-8.11 3.6-4.51 7.29-8.95 10.92-13.43 2.22-2.73 4.65-5.263 6.5-8.32 1.76-2.893 4.1-5.52 6.53-7.93.9-.9 2.77-1.08 4.23-1.22 3.97-.39 7.96-.8 11.94-.784 3.59.015 7.19.54 10.77.925 1.27.14 2.5.52 3.61.75 6.15-10.07 10.61-20.87 20.62-28.7 3.71-.26 8.35-.86 12.99-.83 5.79.05 11.63-.22 17.36 1.08 1.96.44 3.99.65 5.99.91.31.04.69-.14.98-.32 3.156-1.93 6.235-3.98 9.46-5.79 3.52-1.98 7.21-3.66 10.75-5.62 2.8-1.55 5.45-3.38 8.22-4.98.63-.362 1.54-.5 2.28-.41 2.27.265 4.52.657 6.77 1.047 3.68.64 7.34 1.33 11.02 1.97 1.89.33 3.78.7 5.69.85.65.05 1.38-.48 2.05-.8 3.35-1.62 6.71-3.23 10.03-4.91 3.47-1.76 6.88-3.62 10.35-5.39 2.99-1.52 5.88-.75 8.84.34 5.67 2.09 11.45 3.9 17.08 6.09 6.19 2.4 12.37 4.91 17.95 8.56.33.22.58.61.78.96 1.2 2.13 2.25 4.358 3.6 6.4 1.59 2.43 2.31 8.42-.52 9.47"/>
  <path fill="#ee2629" d="M36.82 59.933c0 .422-.507.846-.93.846H23.796c-.423 0-.93-.43-1.1-.77L21.68 55.7c-.17-.34-.42-.34-.59 0l-1.012 4.314c-.168.337-.508.76-1.1.76H6.883c-.423 0-.846-.423-.93-.845L.54 2.51c-.084-.506.254-.93.677-.93h8.54c.51 0 .847.424.847.93l3.89 43.47c.084.42.253.42.507 0l2.63-11.333c.17-.422.68-.846 1.1-.846h4.99c.51 0 1.02.43 1.19.85l2.71 11.33c.26.51.51.42.51 0l4.23-43.47c0-.5.43-.93.93-.93h8.46c.42 0 .85.43.76.93l-5.67 57.43M67.35 1.58c.763 0 1.354.6 1.354 1.19v7.19c0 .764-.59 1.356-1.353 1.356h-9.9c-.76 0-1.35.676-1.35 1.267V23.66c0 .76.59 1.184 1.35 1.184h9.89c.76 0 1.35.59 1.35 1.35v7.19c0 .76-.59 1.183-1.36 1.183h-9.89c-.76 0-1.36.592-1.36 1.352V49.7c0 .76.6 1.353 1.36 1.353h13.53c.67 0 1.18.592 1.18 1.185v7.356c0 .76-.51 1.185-1.18 1.185H47.38c-.76 0-1.353-.43-1.353-1.19V2.93c0-.76.592-1.35 1.184-1.35h20.13m41.18 32.982c0-.338-2.2-22.918-2.2-22.918-.08-.507-.17-.93-.67-.93-.42 0-.59.422-.67.93 0 0-2.19 22.664-2.19 22.918 0 .253.26.338.26.338h5.25s.34-.083.26-.337zm11.93 26.216h-8.62c-.42 0-.84-.34-.84-.847 0 0-1.27-14.37-1.35-14.71 0-.34-.25-.51-.51-.51h-6.93c-.17 0-.34.17-.34.51 0 .25-1.44 14.71-1.44 14.71 0 .51-.42.85-.93.85H91.1c-.507 0-.846-.34-.76-.84l5.244-57c.085-.76.93-1.35 1.353-1.35h17.083c.93 0 1.354.68 1.438 1.36l5.835 57c.085.51-.254.85-.845.85m20.377-48.29c0-.59-.59-1.18-1.354-1.18h-3.29c-.76 0-1.35.59-1.35 1.19v11c0 .76.6 1.36 1.36 1.36h3.3c.77 0 1.36-.59 1.36-1.35v-11zm9.81 11.42c0 3.05-3.044 4.57-3.044 6.18 0 1.44 3.05 2.37 3.05 5.5v22.75c-.08 1.69-.59 2.37-1.86 2.46h-6.09c-1.27-.09-1.94-.77-1.86-2.54V35.92c0-.76-.59-1.352-1.35-1.352h-3.29c-.76 0-1.35.595-1.35 1.355v22.07c0 1.945-.51 2.79-2.03 2.79h-5.58c-2.2 0-2.53-.68-2.53-2.793V3.357c0-.93.85-1.69 1.69-1.776h17.42c3.3 0 6.85 2.37 6.85 7.02v15.31m24.52-22.33c.76 0 1.36.6 1.36 1.19v7.19c0 .77-.59 1.36-1.35 1.36h-9.89c-.76 0-1.35.68-1.35 1.27v11.07c0 .76.59 1.19 1.35 1.19h9.9c.76 0 1.36.59 1.36 1.35v7.19c0 .76-.59 1.19-1.35 1.19h-9.9c-.76 0-1.35.59-1.35 1.35V49.7c0 .76.59 1.353 1.35 1.353h13.53c.68 0 1.19.592 1.19 1.185v7.356c0 .76-.51 1.185-1.18 1.185h-23.6c-.76 0-1.35-.43-1.35-1.19V2.93c0-.76.6-1.35 1.19-1.35h20.12m47.35 1.27v7.186c0 .592-.59 1.184-1.44 1.184h-4.82c-.76 0-1.35.593-1.35 1.353v46.85c0 .76-.59 1.354-1.18 1.354h-7.45c-.84 0-1.43-.595-1.43-1.356V12.57c0-.76-.6-1.352-1.19-1.352h-4.99c-.85 0-1.19-.59-1.19-1.18V2.85c0-.593.34-1.184 1.19-1.184h22.41c.85 0 1.44.59 1.44 1.184m13.11-.085v20.887c0 .762.59 1.185 1.18 1.185h7.36c.59 0 1.19-.423 1.19-1.185V2.765c0-.593.42-1.184 1.19-1.184h7.62c.59 0 1.19.6 1.19 1.19v56.66c0 .76-.59 1.36-1.18 1.36h-7.44c-.76 0-1.35-.59-1.35-1.35V35.75c0-.59-.59-1.184-1.18-1.184h-7.36c-.59 0-1.18.593-1.18 1.184v23.68c0 .76-.59 1.352-1.35 1.352H227c-.76 0-1.35-.595-1.35-1.356V2.764c0-.592.59-1.183 1.355-1.183h7.36c.76 0 1.35.6 1.35 1.19m44.14-1.18c.76 0 1.35.6 1.35 1.19v7.18c0 .77-.59 1.36-1.35 1.36h-9.9c-.76 0-1.35.68-1.35 1.27v11.07c0 .76.59 1.19 1.36 1.19h9.9c.76 0 1.35.59 1.35 1.35v7.19c0 .76-.59 1.19-1.35 1.19h-9.89c-.765 0-1.356.59-1.356 1.35V49.7c0 .76.59 1.353 1.35 1.353h13.53c.68 0 1.19.592 1.19 1.185v7.356c0 .76-.51 1.185-1.19 1.185h-23.6c-.76 0-1.36-.43-1.36-1.19V2.93c0-.76.6-1.35 1.19-1.35h20.13m88.72 89.204V42.66c0-1.706-1.7-3.414-3.75-3.414h-18.1c-2.05 0-3.76 1.708-3.76 3.415v48.13c0 1.71 1.71 3.07 3.76 3.07h18.08c2.05 0 3.75-1.36 3.75-3.07zm-3.75 42.32h-40c-15.698 0-21.157-7.85-21.157-21.844v-90.1C303.62 9.216 310.79 0 324.78 0h61.1c13.99 0 21.845 7.852 21.845 21.162v195.9c0 13.995-10.236 21.844-21.845 21.844h-79.176c-1.713 0-3.078-1.705-3.078-3.752l7.508-31.744c0-2.046 1.362-3.753 3.075-3.753h50.5c2.05 0 3.75-1.023 3.75-3.07v-60.412c0-2.048-1.71-3.07-3.76-3.07m123.89-42.32V42.66c0-1.706-1.71-3.414-3.76-3.414h-18.08c-2.05 0-3.76 1.708-3.76 3.415v48.13c0 1.71 1.71 3.07 3.76 3.07h18.08c2.05 0 3.75-1.36 3.75-3.07zm-3.76 42.32H444.9c-15.693 0-21.15-7.85-21.15-21.844v-90.1C423.75 9.22 430.91 0 444.902 0h61.1c13.99 0 21.844 7.858 21.844 21.168v195.9c0 13.995-10.237 21.844-21.846 21.844h-79.17c-1.71 0-3.076-1.705-3.076-3.752l7.507-31.744c0-2.045 1.37-3.752 3.08-3.752h50.51c2.05 0 3.76-1.02 3.76-3.07v-60.41c0-2.05-1.71-3.07-3.76-3.07m205.45-8.873c-1.02 0-2.05.69-2.05 2.05v89.42c0 .68 1.03 1.37 2.05 1.37h10.59c1.02 0 1.7-.68 1.7-1.36V126.3c0-1.36-.68-2.045-1.7-2.045H690.3zm22.18-22.18c5.8 0 12.29 4.1 12.29 11.95v111.94c0 7.17-4.09 12.63-12.28 12.63h-34.46c-9.56 0-12.63-3.41-12.63-12.63V113.99c0-6.48 5.12-11.944 12.63-11.944h34.47zM568.11 22.19c-1.02 0-2.046.68-2.046 2.05v89.42c0 .68 1.03 1.367 2.05 1.367h10.58c1.02 0 1.703-.68 1.703-1.36V24.23c0-1.368-.68-2.048-1.7-2.048h-10.58zm125.6-20.13c.34-1.37 1.37-2.05 3.08-2.05h21.15c1.03 0 1.71.682 1.365 2.05L578.69 234.81c0 1.028-2.05 2.39-2.728 2.39h-21.5c-1.363 0-2.055-1.362-1.715-2.39L693.707 2.046zM590.3 0c5.8 0 12.28 4.096 12.28 11.946v111.95c0 7.17-4.09 12.63-12.28 12.63h-34.47c-9.557 0-12.63-3.41-12.63-12.62V11.946C543.197 5.46 548.31 0 555.827 0h34.465M325.21 317.06h7.54c1.256 0 2.51-1.44 2.51-2.876v-23.34c0-1.253-1.254-2.515-2.51-2.515h-7.54c-1.26 0-2.514 1.26-2.514 2.51v23.34c0 1.43 1.254 2.87 2.513 2.87zm31.42-34.114v38.958c0 7.364-7.543 15.62-15.623 15.62H325.57c-1.62 0-2.874.9-2.874 2.513v50.453c0 1.618-.9 2.87-2.515 2.87h-16.33c-1.25 0-2.51-1.252-2.51-2.87V270.197c0-1.257 1.26-2.513 2.52-2.513h37.17c8.26 0 15.62 6.103 15.62 15.262m50.98-15.262c1.62 0 2.88 1.256 2.88 2.513v15.26c0 1.614-1.26 2.872-2.87 2.872h-21.01c-1.62 0-2.87 1.43-2.87 2.69v23.51c0 1.62 1.26 2.52 2.88 2.52h21.01c1.62 0 2.88 1.25 2.88 2.87v15.26c0 1.61-1.25 2.51-2.87 2.51h-21.01c-1.62 0-2.87 1.25-2.87 2.87v29.26c0 1.62 1.26 2.87 2.88 2.87h28.73c1.44 0 2.52 1.25 2.52 2.51v15.62c0 1.61-1.08 2.51-2.51 2.51h-50.1c-1.61 0-2.87-.9-2.87-2.51V270.55c0-1.615 1.26-2.87 2.51-2.87h42.73m52.24 23.16c0-1.253-1.26-2.515-2.87-2.515H450c-1.614 0-2.87 1.26-2.87 2.513v23.34c0 1.62 1.256 2.88 2.87 2.88h7c1.61 0 2.87-1.26 2.87-2.88v-23.34zm20.83 24.24c0 6.46-6.46 9.69-6.46 13.106 0 3.05 6.47 5.02 6.47 11.665v48.3c-.18 3.59-1.26 5.03-3.95 5.21h-13c-2.69-.17-4.13-1.61-3.95-5.38v-47.39c0-1.62-1.26-2.87-2.87-2.87h-7c-1.61 0-2.87 1.26-2.87 2.88v46.86c0 4.12-1.08 5.92-4.31 5.92h-11.84c-4.66 0-5.38-1.44-5.38-5.92v-116c0-1.97 1.8-3.59 3.59-3.77h36.99c7 0 14.55 5.03 14.55 14.91v32.5m55.11-47.4c1.26 0 2.52 1.26 2.52 2.52v15.98c0 1.61-1.25 2.87-2.51 2.87h-22.27c-1.62 0-2.87.9-2.87 2.51v77.38c0 1.62 1.25 2.87 2.87 2.87h22.26c1.26 0 2.52.9 2.52 2.52v16.15c0 1.62-1.25 2.87-2.51 2.87h-30.17c-8.07 0-16.51-8.61-16.51-15.62v-94.79c0-6.64 8.25-15.26 16.51-15.26h30.16m56.37 0c1.62 0 2.88 1.25 2.88 2.51v15.26c0 1.61-1.25 2.87-2.87 2.87h-21.01c-1.61 0-2.87 1.44-2.87 2.69v23.52c0 1.62 1.26 2.52 2.87 2.52h21.01c1.62 0 2.87 1.25 2.87 2.87v15.26c0 1.62-1.26 2.52-2.87 2.52h-21.01c-1.62 0-2.87 1.25-2.87 2.87v29.26c0 1.62 1.25 2.88 2.87 2.88h28.73c1.43 0 2.51 1.25 2.51 2.51v15.62c0 1.62-1.08 2.51-2.51 2.51h-50.1c-1.62 0-2.88-.89-2.88-2.51v-120.3c0-1.61 1.26-2.87 2.52-2.87h42.73m31.78.36c2.69 0 3.95 1.8 4.67 4.49l14.54 49.55c.53 2.33.89 2.33.89-.18v-50.63c0-2.51.89-3.59 3.41-3.59h13.65c2.33 0 3.59 1.08 3.59 3.59v118.5c0 2.52-1.26 3.59-3.59 3.59h-10.78c-2.52 0-3.59-1.43-4.31-3.95l-14.37-43.81c-.72-2.51-.9-2.51-.9 0v44.17c0 2.52-1.26 3.59-3.95 3.59h-13.1c-2.52 0-3.6-1.07-3.6-3.59v-118.5c0-2.51 1.08-3.59 3.6-3.59l10.22.36m100.72 2.34v15.26c0 1.25-1.26 2.51-3.06 2.51h-10.23c-1.61 0-2.87 1.25-2.87 2.87v99.46c0 1.61-1.26 2.87-2.51 2.87h-15.8c-1.79 0-3.04-1.26-3.04-2.87v-99.46c0-1.62-1.26-2.88-2.52-2.88H674c-1.8 0-2.513-1.26-2.513-2.51v-15.26c0-1.26.72-2.52 2.52-2.52h47.58c1.8 0 3.06 1.26 3.06 2.51"/>
  <path fill="#231f20" d="M31.72 424.624v-5.274c3.514.164 6.73.88 9.642 2.15 2.913 1.27 5.623 3.124 8.13 5.565 6.64 6.48 9.96 15.48 9.96 27.003 0 11.296-3.173 20.1-9.52 26.416-4.883 4.883-10.955 7.6-18.213 8.154v-5.372c.84-.195 1.5-.446 1.97-.756s.9-.757 1.29-1.343c.88-1.335 1.32-3.352 1.32-6.054V431.46c0-1.725-.3-3.092-.88-4.1-.39-.685-.86-1.222-1.4-1.613-.54-.39-1.31-.764-2.32-1.123zm-4.005 0c-1.66.586-2.832 1.385-3.516 2.392-.69 1.01-1.03 2.49-1.03 4.444v43.653c0 2.864.39 4.882 1.17 6.054.61.977 1.74 1.677 3.37 2.1v5.37c-7.23-.586-13.28-3.302-18.17-8.153C3.2 474.17.03 465.364.03 454.068c0-5.664.836-10.783 2.513-15.357 1.676-4.57 4.158-8.45 7.446-11.64 2.5-2.44 5.2-4.29 8.1-5.56 2.89-1.27 6.1-1.98 9.62-2.15v5.28m71.6 64.02v-5.96c2.54-.19 5.21-1.15 8.01-2.88 1.49-.94 2.83-2.2 4-3.78s2.05-3.31 2.63-5.2c.32-1.04.71-1.78 1.15-2.22.44-.44 1.01-.66 1.73-.66.78 0 1.43.29 1.95.88.52.58.78 1.32.78 2.2 0 1.47-.56 3.24-1.69 5.32-1.12 2.09-2.56 4.01-4.32 5.76-2.15 2.15-4.36 3.75-6.62 4.79s-4.81 1.63-7.64 1.76zm-.15-63.33v-5.91c1.59.26 2.89.54 3.88.83.99.3 2.79.91 5.39 1.86 1.66.59 2.76.88 3.32.88.94 0 1.66-.42 2.14-1.27l.63-1.17c.39-.78 1.12-1.17 2.19-1.17.88 0 1.55.26 2.02.78.47.53.71 1.29.71 2.3v20.31c0 1.3-.3 2.24-.88 2.83-.59.59-1.26.88-2 .88-.79 0-1.41-.25-1.88-.76-.48-.5-.86-1.32-1.15-2.46-.69-2.57-1.35-4.59-2-6.05-1.4-3.09-3-5.6-4.79-7.52-1.21-1.3-2.41-2.3-3.62-3-1.21-.7-2.54-1.14-4.01-1.34zm-3.86-5.95v5.91c-1.92.29-3.36 1.14-4.3 2.54-.95 1.4-1.42 3.4-1.42 6.01v42.43c0 .75.15 1.54.46 2.37.31.83.71 1.54 1.19 2.13.52.66 1.07 1.12 1.66 1.4.58.28 1.38.46 2.39.56v5.96c-6.32 0-11.8-1.64-16.46-4.93-4.11-2.9-7.2-6.79-9.28-11.69-2.09-4.9-3.13-10.7-3.13-17.4 0-4.91.67-9.49 2.02-13.74s3.31-7.94 5.88-11.06c2.6-3.16 5.72-5.7 9.35-7.62s7.12-2.88 10.47-2.88l1.12.05m65.45 69.28v-5.96c2.54-.19 5.21-1.15 8.01-2.88 1.49-.94 2.83-2.2 4-3.78s2.05-3.31 2.64-5.2c.33-1.04.71-1.78 1.15-2.22.44-.44 1.02-.66 1.73-.66.78 0 1.43.29 1.95.88.52.59.78 1.32.78 2.2 0 1.47-.57 3.24-1.69 5.32-1.13 2.09-2.57 4.01-4.32 5.76-2.15 2.15-4.36 3.75-6.62 4.79s-4.81 1.63-7.64 1.76zm-.15-63.33v-5.91c1.59.26 2.88.54 3.88.83.99.29 2.79.91 5.39 1.86 1.66.59 2.76.88 3.32.88.94 0 1.66-.42 2.15-1.27l.63-1.17c.39-.78 1.12-1.17 2.19-1.17.88 0 1.55.26 2.02.78s.71 1.29.71 2.3v20.31c0 1.3-.29 2.24-.88 2.83-.59.59-1.26.88-2 .88-.78 0-1.41-.25-1.88-.76-.47-.5-.85-1.32-1.15-2.46-.68-2.57-1.35-4.59-2-6.06-1.4-3.09-2.99-5.6-4.78-7.52-1.21-1.3-2.41-2.3-3.62-3-1.2-.7-2.54-1.14-4-1.34zm-3.86-5.96v5.91c-1.92.29-3.35 1.14-4.3 2.54-.95 1.4-1.42 3.4-1.42 6v42.43c0 .75.15 1.54.46 2.37.31.83.71 1.54 1.2 2.13.52.65 1.07 1.11 1.66 1.39.58.27 1.38.46 2.39.56v5.95c-6.32 0-11.8-1.64-16.46-4.93-4.1-2.9-7.2-6.79-9.28-11.69-2.09-4.9-3.13-10.7-3.13-17.41 0-4.92.67-9.5 2.02-13.75s3.31-7.93 5.88-11.06c2.61-3.16 5.72-5.7 9.35-7.62s7.12-2.88 10.48-2.88l1.12.05m70.44 69.29v-6.39c3.25-.42 5.97-1.75 8.15-4 2.47-2.57 3.71-6.27 3.71-11.08v-31.83c0-4.46-1.71-7.57-5.13-9.32-1.01-.52-1.67-.97-1.98-1.34-.31-.37-.46-.92-.46-1.64 0-.85.31-1.45.93-1.81.61-.36 1.62-.54 3.02-.54h11.97c1.01 0 1.68.03 2.02.08.34.05.68.17 1 .37.85.49 1.27 1.16 1.27 2 0 .72-.26 1.32-.78 1.81-.16.17-.86.61-2.1 1.32-1.43.78-2.56 1.98-3.37 3.59-.81 1.61-1.22 3.45-1.22 5.5v31.89c0 5.47-1.2 9.96-3.61 13.48-1.75 2.6-4.28 4.68-7.57 6.25-1.63.78-3.58 1.35-5.86 1.7zm-31.69-20.8V429.6c0-1.14-.2-1.97-.59-2.49-.2-.29-.39-.48-.57-.56-.18-.08-.8-.3-1.88-.66-1.3-.42-1.95-1.286-1.95-2.59 0-.844.32-1.49.95-1.927.64-.44 1.54-.66 2.71-.66h24.32l1.76.195c.55.168 1.01.46 1.37.88.36.426.53.93.53 1.516 0 1.3-.65 2.16-1.95 2.59-1.08.353-1.7.573-1.88.653-.18.08-.37.27-.56.56-.39.52-.59 1.35-.59 2.49v40.97c0 2.765.08 4.694.22 5.784.15 1.09.45 2.07.91 2.95.42.82.89 1.4 1.41 1.76.52.36 1.51.77 2.97 1.22v6.4h-1.07c-4.23 0-7.75-.37-10.55-1.12-3.29-.88-6.17-2.18-8.64-3.91-2.47-1.73-4.23-3.66-5.27-5.81-1.11-2.27-1.66-5.59-1.66-9.96m97.33-6.05v-5.23c1.4-.32 2.38-.66 2.95-1.02.57-.36 1.06-.91 1.49-1.66.68-1.27 1.02-2.98 1.02-5.13v-15.62c0-1.53-.11-2.67-.34-3.42-.23-.75-.68-1.43-1.37-2.05-.95-.91-2.22-1.48-3.81-1.71v-5.27c6.702 0 11.65.63 14.84 1.9 3.68 1.46 6.59 3.71 8.74 6.74 2.18 3.09 3.27 6.88 3.27 11.38 0 5.01-1.1 9.11-3.32 12.3-2.21 3.16-5.3 5.49-9.27 6.98-3.29 1.21-8.025 1.81-14.21 1.81zm-4.15-41.11v57.37c0 1.27.24 2.18.73 2.74.26.33.5.53.73.61.23.08.98.29 2.25.61 1.56.36 2.34 1.26 2.34 2.69 0 .85-.42 1.53-1.27 2.05-.62.39-1.64.58-3.07.58h-24.7c-1.17 0-2.07-.22-2.71-.66-.63-.44-.95-1.06-.95-1.88 0-1.33.65-2.21 1.95-2.63 1.07-.36 1.7-.58 1.88-.66.18-.08.36-.27.56-.56.39-.52.583-1.35.583-2.5V429.6c0-1.14-.193-1.97-.584-2.49-.2-.29-.388-.48-.56-.56-.18-.08-.81-.3-1.88-.66-1.31-.42-1.96-1.3-1.96-2.64 0-.82.316-1.44.95-1.88.636-.44 1.54-.66 2.71-.66h23m77.95 31.44l-2.73-6.39 5.13-11.47c.42-.97.63-2.31.63-4 0-1.89-1.04-3.24-3.13-4.05-1.14-.45-1.88-.85-2.225-1.19-.34-.34-.51-.87-.51-1.59 0-.88.29-1.55.88-2 .39-.29.83-.49 1.32-.59.48-.1 1.33-.15 2.54-.15h12.06c2.27 0 3.41.91 3.41 2.735 0 .65-.15 1.15-.46 1.51-.31.36-.9.73-1.78 1.12-1.598.72-2.738 1.44-3.42 2.15-.98 1.04-1.79 2.23-2.44 3.57l-1.126 2.49-8.158 17.87zm-1.9 4.64v21.29c0 1.27.24 2.18.73 2.74.26.33.5.53.73.61.23.09.98.29 2.25.61 1.56.36 2.34 1.26 2.34 2.69 0 .95-.44 1.66-1.32 2.15-.52.33-1.53.49-3.024.49h-25c-1.468 0-2.49-.19-3.08-.58-.845-.52-1.27-1.21-1.27-2.06 0-1.43.784-2.32 2.35-2.68 1.27-.32 2.02-.53 2.25-.61.23-.08.45-.284.68-.61.49-.55.73-1.47.73-2.734v-16.51l-13.8-32.955c-.52-1.23-1.255-2.13-2.2-2.68-.877-.55-1.44-.99-1.684-1.32-.24-.32-.37-.78-.37-1.36 0-1.69 1.24-2.54 3.71-2.54h23.93c1.27 0 2.15.14 2.64.44.81.52 1.22 1.2 1.22 2.05 0 1.04-.47 1.85-1.42 2.44l-1.42.88c-.56.36-.83.89-.83 1.61 0 .81.17 1.61.53 2.39l11.37 26.27m96.48-3.96c2.93.59 5.18 1.16 6.76 1.71 1.58.56 3 1.26 4.27 2.1 2.18 1.4 3.85 3.25 5 5.55 1.16 2.29 1.73 4.85 1.73 7.69 0 5.56-2.05 9.91-6.15 13.03-2.12 1.63-4.46 2.78-7.01 3.45-2.56.66-5.91 1-10.04 1h-5.81v-5.13c1.3-.1 2.32-.28 3.07-.56.75-.27 1.42-.74 2-1.39 1.08-1.2 1.61-3.08 1.61-5.62V463.6c0-1.63-.14-2.896-.42-3.81-.28-.91-.79-1.74-1.54-2.49-.55-.585-1.15-1.01-1.8-1.27-.65-.26-1.58-.47-2.78-.634v-5.08c1.2-.1 2.14-.26 2.81-.49.67-.23 1.28-.6 1.83-1.13.52-.49.96-1.123 1.32-1.905.36-.78.56-1.49.59-2.14V433.5c0-.88-.14-1.8-.44-2.76-.29-.96-.65-1.714-1.07-2.27-.62-.75-1.31-1.3-2.07-1.66-.77-.36-1.8-.6-3.1-.73v-5.37h5.61c7.42 0 13.09 1.53 16.99 4.59 1.79 1.4 3.16 3.09 4.11 5.076.94 1.99 1.42 4.14 1.42 6.45 0 2.28-.48 4.43-1.44 6.45-.968 2.02-2.31 3.7-4.03 5.03-1.27 1.05-2.74 1.89-4.4 2.54-1.66.65-4.005 1.32-7.03 2zM446 420.7v66.65h-23c-1.17 0-2.08-.22-2.71-.66-.64-.44-.95-1.06-.95-1.88 0-1.33.65-2.21 1.95-2.63 1.07-.36 1.7-.58 1.88-.66.17-.08.36-.27.56-.56.39-.52.58-1.35.58-2.49v-48.88c0-1.14-.2-1.97-.59-2.49-.2-.298-.387-.48-.56-.56-.18-.08-.81-.3-1.88-.66-1.307-.428-1.96-1.3-1.96-2.64 0-.81.32-1.44.95-1.88.64-.44 1.54-.66 2.71-.66h23m62.87 0h19.678l13.575 57.37c.26 1.01.55 1.9.88 2.68.29.62.94 1.13 1.95 1.52.842.36 1.43.713 1.76 1.07.32.36.482.85.482 1.465 0 1.69-1.27 2.54-3.81 2.54h-24.36c-.98 0-1.76-.24-2.35-.71-.59-.47-.88-1.1-.88-1.88 0-.65.13-1.14.39-1.47.26-.32.84-.73 1.76-1.22.65-.32 1.1-.68 1.36-1.07s.39-.88.39-1.47c0-.55-.05-1.04-.15-1.46l-1.56-7.08h-13.6l1.32-5.81h10.93l-8.984-39.7 1.22-4.79zm-3.37 12.4l2.49 10.11-8.64 31.54c-.26.91-.39 1.76-.39 2.54 0 2.05.96 3.51 2.88 4.39l1.71.78c1.075.49 1.61 1.302 1.61 2.44 0 1.63-1.19 2.44-3.57 2.44h-12.4c-1.202 0-2.154-.25-2.853-.753-.7-.51-1.05-1.2-1.05-2.08 0-.94.72-1.72 2.15-2.34 1.34-.58 2.32-1.11 2.96-1.582.64-.47 1.25-1.11 1.84-1.92.91-1.33 1.66-3.11 2.25-5.32l11.03-40.24m75.07-8.1v-5.37c1.95.13 3.64.38 5.08.76s3.47 1.12 6.11 2.23c.65.26 1.19.39 1.61.39.62 0 1.078-.21 1.37-.63l1.07-1.42c.52-.71 1.16-1.07 1.91-1.07.88 0 1.52.31 1.93.95.41.63.61 1.63.61 3v16.11c0 .94-.27 1.72-.803 2.32-.54.6-1.23.9-2.08.9-.65 0-1.25-.21-1.805-.63-.29-.26-.53-.58-.71-.96-.18-.37-.35-1-.51-1.88-.36-1.59-.98-3.24-1.85-4.93-.88-1.69-1.91-3.21-3.08-4.54-2.34-2.64-5.29-4.38-8.84-5.23zm-6.4 58.11v5.57c-2.67 0-5.61-.76-8.84-2.29-1.2-.55-2.03-.91-2.49-1.07-.46-.16-.9-.24-1.32-.24-.65 0-1.14.11-1.46.32-.32.21-.84.74-1.56 1.59-.58.71-1.22 1.07-1.9 1.07-1.82 0-2.73-1.4-2.73-4.2v-17.77c0-.91.26-1.68.78-2.32.52-.63 1.17-.97 1.95-1 .71-.03 1.27.17 1.68.61.4.44.75 1.215 1.05 2.32.75 2.8 1.83 5.42 3.24 7.86 1.41 2.44 3.06 4.51 4.95 6.2 1.92 1.758 4.13 2.88 6.64 3.37zm2.54-63.72V425c-2.02.557-3.56 1.41-4.61 2.566-1.05 1.15-1.58 2.58-1.58 4.27 0 1.63.44 3.05 1.32 4.27.88 1.224 2.31 2.39 4.3 3.494 1.37.75 4.46 2.18 9.28 4.3 2.93 1.27 5.2 2.42 6.81 3.443 1.61 1.025 3.13 2.303 4.568 3.833 3.84 4.037 5.76 8.837 5.76 14.4 0 4.2-1.04 8.04-3.12 11.526-2.08 3.49-4.947 6.22-8.59 8.21-1.956 1.04-4.097 1.86-6.424 2.46-2.32.6-4.5.9-6.52.9v-5.57c2.83-.68 4.88-1.63 6.13-2.85 1.25-1.22 1.88-2.87 1.88-4.95 0-2.18-.98-4.103-2.93-5.764-1.3-1.07-3.78-2.408-7.42-4-4-1.76-6.74-3.01-8.22-3.76-1.48-.75-2.91-1.63-4.27-2.64-6.12-4.36-9.18-10.17-9.18-17.43 0-3.71.77-7.14 2.3-10.28 1.53-3.14 3.66-5.67 6.4-7.59 3.81-2.67 8.53-4.15 14.16-4.45m67.55 67.97v-5.28c2.12-.33 3.86-.78 5.25-1.37 1.38-.59 2.77-1.48 4.17-2.69 1.4-1.2 2.52-2.446 3.35-3.73.83-1.29 1.62-2.99 2.37-5.107.36-1.04.73-1.75 1.12-2.12.39-.37.93-.56 1.61-.56.91 0 1.55.27 1.91.81.36.54.54 1.47.54 2.81v17.23h-20.3zm-.05-66.65h19.68v17.28c0 1.01-.2 1.74-.59 2.2-.39.46-1.01.685-1.85.685-.71 0-1.24-.15-1.56-.44-.32-.293-.63-.894-.92-1.81-1.24-3.773-3.05-6.66-5.45-8.64-2.4-1.98-5.49-3.17-9.3-3.56v-5.71zm-.23 35.53v-5.67c1.89-.91 3.29-1.9 4.2-2.978.91-1.076 1.58-2.507 2-4.3.26-1.24.61-2.09 1.03-2.565.43-.47 1.03-.708 1.81-.708 1.04 0 1.76.41 2.15 1.22.23.43.34 1.39.34 2.88v18.6c0 1.53-.17 2.59-.51 3.18-.34.59-.97.88-1.88.88-.75 0-1.33-.22-1.75-.68-.42-.46-.77-1.22-1.03-2.3-.55-2.25-1.34-3.97-2.36-5.18-1.02-1.2-2.35-2-3.98-2.39zm-4.1-35.55v66.65h-23c-1.17 0-2.07-.22-2.71-.66-.63-.44-.95-1.068-.95-1.88 0-1.337.65-2.215 1.95-2.64 1.08-.357 1.7-.577 1.88-.66.18-.08.37-.267.57-.56.39-.52.59-1.35.59-2.49v-48.87c0-1.14-.19-1.97-.58-2.49-.19-.294-.38-.48-.56-.56-.18-.08-.8-.3-1.88-.66-1.3-.424-1.95-1.3-1.95-2.64 0-.81.32-1.44.95-1.88.64-.44 1.54-.66 2.71-.66h23m65.65 66.653v-5.47c1.59-.29 2.86-.61 3.78-.97.93-.36 1.82-.88 2.66-1.56 1.37-1.07 2.62-2.55 3.76-4.44 1.14-1.89 2.07-3.99 2.79-6.3.52-1.79 1-2.97 1.44-3.54.44-.57 1.08-.85 1.93-.85.91 0 1.58.38 2 1.13.2.36.3 1.07.3 2.15v19.87H705.6zm-3.96 0h-23c-1.17 0-2.07-.22-2.71-.66-.63-.44-.95-1.06-.95-1.88 0-1.33.65-2.21 1.96-2.63 1.08-.36 1.7-.58 1.88-.66.18-.08.37-.27.56-.56.39-.52.58-1.35.58-2.49v-48.88c0-1.14-.19-1.97-.58-2.49-.19-.29-.38-.48-.56-.56-.18-.08-.8-.3-1.88-.66-1.3-.42-1.95-1.3-1.95-2.63 0-.81.32-1.44.96-1.88.64-.44 1.54-.66 2.71-.66h24.71c1.43 0 2.46.2 3.08.59.85.52 1.27 1.21 1.27 2.05 0 1.44-.78 2.33-2.34 2.69-1.27.3-2.02.49-2.24.59-.23.1-.47.3-.73.59-.49.59-.73 1.5-.73 2.74v57.42"/>
</svg>
