<svg xmlns="http://www.w3.org/2000/svg" viewBox="0 0 158.533 36.85">
  <circle cx="18.429" cy="18.425" r="15.89" fill="#FFF"/>
  <path d="M18.428 1.35C8.998 1.35 1.35 8.992 1.35 18.425 1.35 27.855 9 35.5 18.43 35.5c9.432 0 17.08-7.646 17.08-17.075 0-9.434-7.65-17.075-17.08-17.075zm0 32.395c-8.46 0-15.32-6.86-15.32-15.32s6.86-15.32 15.32-15.32c8.465 0 15.323 6.86 15.323 15.32s-6.85 15.32-15.32 15.32z"/>
  <path d="M25.73 9.926c-3.697-2.07-8.326-2.09-11.998-1.148v-1.59h-1.595v2.078c-.684.247-1.317.527-1.88.832 0 0 .792-.098 1.88-.03v13.895c-.792 1.22-.982 2.408-.796 3.777.22 1.53 1.37 2.554 2.28 3.31-.53-1.544-.57-2.95-.42-3.8.3-1.588 1.24-2.73 5.26-3.6 4.17-.898 9.12-1.315 10.75-5.364.75-1.85 1.21-5.736-3.46-8.36zm-9.75 10.452c-.893.627-1.636 1.212-2.248 1.77V10.276c1.242.263 2.557.8 3.463 1.867 2.23 2.633 1.474 6.35-1.214 8.236z"/>
  <path d="M0 18.425C0 8.245 8.252 0 18.428 0c10.177 0 18.43 8.245 18.43 18.425 0 10.174-8.253 18.425-18.43 18.425C8.252 36.85 0 28.6 0 18.425zM5.635 5.63C2.36 8.906.335 13.428.335 18.426c0 4.995 2.025 9.517 5.3 12.79 3.275 3.275 7.797 5.3 12.793 5.3 4.996 0 9.52-2.024 12.794-5.3 3.275-3.273 5.3-7.795 5.3-12.79 0-4.998-2.024-9.52-5.3-12.794C27.948 2.36 23.424.335 18.428.335S8.91 2.357 5.635 5.63z"/>
  <path fill="#F9B200" d="M44.818 7.74c.184-.04.363-.066.54-.08.177-.012.377-.02.6-.02.367 0 .74.04 1.12.118.04.065.076.16.11.285l.097.403c.032.145.06.285.08.422.02.14.034.254.048.345.118-.21.262-.416.433-.62.17-.202.376-.383.62-.54.24-.157.513-.284.814-.384.302-.1.636-.15 1.003-.15.562 0 1.09.1 1.582.31.49.21.92.52 1.287.95s.652.96.855 1.6c.203.64.305 1.4.305 2.28 0 .85-.125 1.61-.373 2.29-.25.67-.61 1.25-1.09 1.72-.47.47-1.05.83-1.73 1.09-.68.26-1.46.38-2.32.38-.23 0-.45-.01-.66-.03-.22-.02-.4-.04-.54-.07v4.52c-.25.04-.49.06-.72.07-.23.01-.46.02-.68.02-.23 0-.45-.01-.68-.02-.23-.01-.47-.04-.72-.08V7.74zm2.792 8.02c.353.104.76.156 1.218.156.812 0 1.436-.262 1.867-.785.433-.52.648-1.31.648-2.37 0-.4-.032-.78-.098-1.13-.066-.34-.178-.64-.334-.89-.15-.25-.35-.44-.6-.59-.24-.14-.54-.21-.89-.21-.33 0-.6.07-.83.19-.23.13-.41.3-.56.51-.14.22-.25.47-.31.76s-.09.6-.09.93v3.46zm9.434-5.878h-1.316c-.04-.17-.07-.35-.09-.54s-.028-.37-.028-.54c0-.355.04-.702.118-1.043h4.05v10.16c-.473.07-.932.11-1.378.11-.433 0-.885-.04-1.356-.12V9.88zm-.412-3.833c-.08-.45-.118-.89-.118-1.32 0-.42.04-.86.118-1.32.222-.04.462-.07.718-.09.255-.02.487-.03.697-.03.223 0 .465.01.727.03.263.02.505.05.728.09.04.22.065.44.08.66.01.21.018.43.018.65 0 .21-.007.42-.02.65-.014.22-.04.44-.08.66-.222.04-.46.06-.716.08-.256.01-.495.02-.718.02-.21 0-.445-.01-.707-.02-.27-.01-.51-.04-.73-.08zm5.896 1.71c.196-.04.383-.07.56-.09.177-.02.37-.03.58-.03.196 0 .39.01.58.04s.377.06.56.1c.04.06.076.16.108.28.033.12.062.25.09.39s.048.27.068.41c.02.14.035.25.05.34.287-.41.64-.77 1.06-1.09.42-.32.944-.49 1.572-.49.13 0 .282.01.453.02.17.01.29.03.37.06.02.13.04.28.06.45.01.17.02.34.02.53 0 .22-.01.46-.03.72-.02.26-.06.51-.11.75-.15-.03-.31-.04-.48-.04h-.33c-.23 0-.48.02-.75.06-.28.04-.54.16-.79.36-.25.19-.46.49-.62.88-.17.39-.25.94-.25 1.65v4.84c-.24.04-.47.06-.71.08-.24.01-.47.02-.69.02s-.45-.01-.68-.02c-.23-.02-.47-.04-.72-.08V7.76zm12.777 3.47c0-.32-.053-.57-.157-.77s-.25-.35-.433-.46-.41-.19-.678-.23c-.27-.04-.567-.06-.895-.06-.708 0-1.462.14-2.26.41-.185-.34-.322-.66-.414-.97-.092-.3-.137-.66-.137-1.08.58-.2 1.16-.35 1.73-.44.58-.1 1.12-.14 1.61-.14 1.37 0 2.43.33 3.2.98.77.65 1.15 1.7 1.15 3.14v5.89c-.46.14-1.01.28-1.67.41s-1.39.2-2.22.2c-.67 0-1.28-.06-1.84-.18s-1.03-.31-1.43-.59-.71-.63-.92-1.06-.32-.96-.32-1.59c0-.63.14-1.16.41-1.59.27-.43.62-.77 1.04-1.02s.9-.44 1.43-.56c.53-.11 1.05-.17 1.58-.17.38 0 .8.02 1.26.06v-.23zm0 2.02c-.157-.03-.328-.05-.512-.07-.184-.02-.347-.03-.49-.03-.643 0-1.15.11-1.524.34-.38.23-.56.6-.56 1.11 0 .34.07.6.21.78.14.18.31.31.52.4.2.08.42.13.65.15.23.02.43.03.6.03.19 0 .39-.02.59-.05.19-.03.36-.06.51-.09v-2.59zm5.465-3.38h-1.28l-.1-.4 3.68-4.7h.45v2.97h2.38c.04.19.065.37.078.53.013.15.02.32.02.49 0 .18-.007.36-.02.53s-.04.36-.078.57h-2.38v3.99c0 .4.033.73.1.98.065.25.16.44.285.59.124.14.278.24.462.29.183.05.4.08.648.08.196 0 .39-.02.58-.05.19-.04.356-.06.5-.09.093.25.158.51.198.77.04.27.06.51.06.71 0 .14-.004.26-.01.36s-.018.19-.03.28c-.604.14-1.227.21-1.868.21-1.192 0-2.103-.28-2.73-.84-.63-.56-.945-1.47-.945-2.72v-4.6zm9.472 3.81c.053.78.328 1.35.826 1.71.498.35 1.153.53 1.966.53.445 0 .9-.05 1.366-.13.465-.09.907-.21 1.326-.37.145.26.27.57.374.94.104.36.164.76.177 1.18-1.02.39-2.176.59-3.46.59-.942 0-1.752-.14-2.427-.4-.676-.26-1.226-.63-1.65-1.09-.427-.47-.74-1.02-.944-1.66s-.305-1.35-.305-2.11c0-.75.11-1.45.32-2.11s.52-1.23.94-1.71c.42-.49.93-.87 1.54-1.15.61-.28 1.32-.42 2.14-.42.71 0 1.34.12 1.89.37.55.25 1.02.59 1.41 1.02.39.43.68.95.88 1.54.2.59.3 1.23.3 1.91 0 .24-.01.49-.03.73-.02.24-.04.44-.06.58h-6.53zm3.99-1.95c-.025-.63-.2-1.14-.52-1.53-.322-.39-.77-.58-1.348-.58-.654 0-1.152.18-1.493.55-.34.37-.54.88-.6 1.55h3.97zm4.836-3.99c.184-.04.367-.07.55-.09.185-.02.388-.03.61-.03s.42.01.59.03c.17.02.347.05.53.09.04.06.075.16.108.28.032.12.062.26.088.39.026.14.05.27.07.4l.048.33c.13-.2.288-.39.472-.59s.396-.37.64-.53c.24-.16.514-.29.815-.39.3-.1.63-.15 1-.15 1.15 0 2.02.31 2.6.94s.87 1.62.87 2.97v6.49c-.48.08-.94.12-1.4.12-.46 0-.93-.04-1.4-.12v-5.74c0-.71-.11-1.25-.33-1.63-.22-.38-.59-.57-1.13-.57-.22 0-.45.03-.69.1-.24.06-.45.19-.64.38s-.35.46-.46.8c-.12.34-.18.78-.18 1.33v5.33c-.47.08-.94.11-1.4.11-.46 0-.93-.04-1.4-.11V7.76z"/>
  <path d="M110.96 7.896c.08-.013.177-.022.295-.03.118-.005.217-.01.296-.01.08 0 .18.005.3.01.12.008.22.018.3.03l.12 1.377c.28-.42.67-.793 1.19-1.12.52-.33 1.19-.492 2.02-.492.62 0 1.18.1 1.69.29.51.19.95.49 1.31.9.36.41.64.92.85 1.54.21.62.31 1.36.31 2.22 0 .87-.11 1.65-.35 2.33-.23.69-.58 1.27-1.03 1.75-.45.48-1.01.85-1.67 1.1-.66.26-1.42.39-2.27.39-.31 0-.65-.02-1.02-.08-.36-.05-.7-.13-1-.23v4.72c-.08.02-.19.03-.33.03-.14.01-.25.01-.31.01-.08 0-.19 0-.32-.01-.14 0-.24-.01-.32-.03V7.9zm1.298 8.748c.3.118.612.206.934.266.32.06.75.09 1.287.09.51 0 .99-.083 1.45-.247.46-.164.86-.423 1.2-.776.34-.354.61-.803.8-1.347.19-.543.29-1.195.29-1.955 0-1.206-.23-2.15-.68-2.832-.45-.68-1.18-1.02-2.19-1.02-.32 0-.66.052-1.02.157-.37.104-.71.284-1.02.54-.31.255-.57.59-.77 1.002s-.31.935-.31 1.563v4.56zm15.6-5.347c0-.864-.204-1.497-.61-1.896s-1.01-.6-1.81-.6c-.523 0-1.002.04-1.435.11-.433.07-.82.16-1.16.27-.065-.11-.12-.28-.167-.51-.046-.22-.068-.43-.068-.63.34-.1.76-.19 1.257-.26s1.01-.11 1.533-.11c1.27 0 2.214.28 2.83.84.616.56.924 1.43.924 2.63v6.63c-.46.1-1.016.19-1.67.28s-1.278.14-1.868.14c-1.218 0-2.18-.24-2.88-.73-.7-.48-1.05-1.27-1.05-2.36 0-.52.1-.99.304-1.4s.484-.76.845-1.04.793-.49 1.298-.64c.51-.14 1.06-.21 1.66-.21.48 0 .88.02 1.22.05.34.03.63.06.85.09v-.61zm0 1.75c-.224-.026-.503-.056-.837-.09-.33-.03-.65-.048-.95-.048-.98 0-1.74.18-2.28.55-.53.36-.8.89-.8 1.57 0 .43.08.78.25 1.04.17.26.38.46.64.6.26.14.55.23.87.27s.63.07.95.07c.41 0 .79-.02 1.14-.06.36-.04.7-.09 1.04-.16v-3.75zm4.356-5.15c.104-.014.206-.023.305-.03.09-.006.19-.01.28-.01.1 0 .2.004.29.01.09.007.19.017.29.03.02.235.04.514.06.835.01.32.02.612.02.875.26-.484.63-.895 1.1-1.23.47-.334 1.09-.5 1.87-.5h.2s.15.006.24.02c.04.222.06.432.06.628 0 .21-.02.413-.06.61-.1-.013-.19-.02-.25-.02h-.19c-.89 0-1.61.28-2.15.845-.54.562-.81 1.5-.81 2.81v5.15c-.08.013-.19.022-.32.03-.14.006-.25.01-.33.01-.07 0-.17-.004-.32-.01-.15-.008-.26-.018-.34-.03V7.897zm7.466 1.1h-1.71c-.012-.065-.02-.15-.028-.255-.007-.105-.01-.21-.01-.314 0-.105.003-.203.01-.295s.017-.17.03-.236h1.71V6.01l1.218-1.2h.08v3.087h2.712c.013.066.022.145.03.236.005.092.01.19.01.295 0 .104-.005.21-.01.314-.008.104-.018.19-.03.256h-2.713v6.525c0 .328.04.586.12.776.08.19.19.33.33.44s.29.17.47.2.35.05.54.05c.46 0 .85-.06 1.2-.18.09.34.15.7.19 1.1-.47.14-1.02.21-1.65.21-.75 0-1.36-.2-1.82-.6s-.7-1.05-.7-1.96V9zm6.902 4.108c0 1.336.308 2.32.924 2.95.615.628 1.54.942 2.77.942.5 0 .96-.043 1.387-.128s.842-.2 1.248-.35c.07.14.12.32.16.53s.07.4.08.57c-.38.17-.82.3-1.34.39-.51.09-1.06.14-1.67.14-.86 0-1.61-.13-2.23-.39-.62-.26-1.13-.61-1.53-1.07-.4-.46-.69-1.01-.88-1.65-.19-.64-.28-1.34-.28-2.1 0-.74.09-1.42.27-2.07s.45-1.21.81-1.69c.36-.49.83-.87 1.39-1.14.57-.28 1.24-.41 2.03-.41.66 0 1.24.11 1.75.33.51.23.94.54 1.29.94s.61.88.79 1.43c.18.56.27 1.16.27 1.82 0 .12 0 .27-.01.45s-.02.34-.03.47h-7.16zm5.897-1.08c0-.406-.06-.807-.16-1.2-.11-.393-.27-.737-.49-1.032-.23-.294-.52-.533-.87-.717s-.78-.275-1.28-.275c-.92 0-1.63.29-2.15.85-.51.56-.82 1.36-.93 2.38h5.85zm4.75-3.027h-1.26c-.02-.066-.02-.145-.03-.236s-.01-.19-.01-.295c0-.104 0-.21.01-.314s.01-.19.03-.256h2.55v10.025c-.08.012-.19.02-.33.03-.14.005-.25.01-.33.01-.07 0-.17-.005-.32-.01-.15-.01-.26-.02-.34-.03V8.998zm-.65-3.56c-.02-.116-.03-.26-.03-.432-.01-.17-.01-.313-.01-.433 0-.104 0-.235.01-.393 0-.157.01-.288.03-.393.12-.014.26-.023.43-.03.17-.006.31-.01.43-.01.1 0 .23.004.39.01.15.007.29.017.39.03.01.104.02.235.03.393 0 .157.01.29.01.393 0 .12-.01.263-.01.433-.01.17-.02.315-.03.433-.11.01-.24.02-.4.02-.16.01-.29.01-.4.01-.12 0-.26 0-.43-.01-.17-.01-.32-.02-.44-.03zM44.8 24.86c.046-.006.108-.012.187-.016s.14-.006.18-.006c.04 0 .1.002.18.006s.143.01.19.016v3.332c.16-.24.382-.455.68-.646.295-.19.68-.287 1.153-.287.353 0 .675.05.97.16.29.11.54.28.747.51s.37.52.486.87c.116.35.175.77.175 1.27 0 1-.27 1.78-.82 2.34-.546.56-1.34.84-2.373.84-.34 0-.665-.03-.98-.1-.315-.06-.574-.13-.776-.21v-8.1zm.74 7.588c.175.06.357.104.55.13s.4.038.62.038c.3 0 .585-.05.86-.146s.513-.248.72-.45c.206-.202.37-.46.495-.77s.187-.686.187-1.12c0-.683-.13-1.22-.39-1.61-.26-.39-.676-.584-1.254-.584-.18 0-.375.03-.585.09-.21.06-.404.16-.58.303s-.323.33-.44.56-.173.53-.173.89v2.65zm6.375-2.072c0 .766.176 1.328.53 1.69.352.358.88.538 1.586.538.29 0 .55-.023.8-.072.25-.05.48-.115.72-.197.04.082.07.184.09.305.03.12.04.23.05.326-.22.098-.47.172-.76.225-.29.06-.61.08-.95.08-.49 0-.92-.07-1.27-.22s-.65-.35-.88-.61c-.23-.26-.4-.57-.5-.94-.11-.36-.16-.76-.16-1.2 0-.42.05-.81.15-1.18.11-.36.26-.69.47-.97.21-.27.47-.49.8-.65.33-.16.71-.23 1.16-.23.38 0 .71.07 1 .19.3.13.54.31.74.54.2.23.35.5.45.82.1.32.15.67.15 1.04v.26l-.01.27h-4.1zm3.376-.62c0-.23-.03-.46-.09-.685s-.15-.42-.28-.59c-.13-.17-.29-.3-.49-.41-.2-.1-.44-.16-.73-.16-.52 0-.93.17-1.23.49-.29.32-.47.78-.53 1.36h3.36zm2.73-1.732h-.72c-.01-.037-.01-.082-.01-.135v-.17c0-.06 0-.12.01-.18s.01-.11.02-.15h1.46v5.74c-.04.01-.1.01-.18.02h-.19c-.04 0-.1 0-.18-.01s-.14-.01-.19-.02v-5.11zm-.37-2.037c-.01-.068-.01-.15-.02-.248-.01-.1-.01-.18-.01-.25v-.23s.01-.17.02-.23c.07-.01.15-.02.25-.02.1-.01.18-.01.25-.01h.22l.23.01c.01.06.01.13.02.22l.01.22v.25c0 .09-.01.18-.02.24-.06.01-.13.01-.22.02s-.17 0-.23 0-.15 0-.24-.01-.18-.01-.25-.02zm6.95-1.127c.05-.006.11-.012.19-.016s.15-.006.18-.006c.05 0 .11.002.19.006.07.004.14.01.18.016V33c-.23.075-.52.138-.87.19s-.7.078-1.08.078c-.41 0-.8-.05-1.16-.146-.36-.096-.67-.258-.93-.482-.26-.227-.47-.52-.62-.89-.15-.368-.23-.82-.23-1.362 0-.496.07-.936.21-1.322.14-.387.33-.713.58-.98.25-.267.55-.472.9-.614.35-.143.74-.213 1.16-.213.25 0 .49.02.74.06.25.04.44.09.59.14v-2.6zm0 3.3c-.15-.062-.34-.116-.57-.165-.23-.05-.47-.072-.72-.072-.35 0-.66.06-.92.18s-.47.287-.64.502c-.17.213-.3.47-.39.77-.08.3-.13.63-.13.992 0 .78.19 1.348.56 1.705.37.355.9.533 1.58.533.25 0 .49-.012.71-.04.23-.024.4-.058.53-.095v-4.31zm3.2 2.216c0 .766.18 1.328.53 1.69.35.358.88.538 1.59.538.29 0 .55-.023.8-.072.25-.05.49-.115.72-.197.04.082.07.184.09.305.03.12.04.23.05.326-.22.098-.47.172-.76.225-.29.06-.61.08-.95.08-.5 0-.92-.07-1.28-.22s-.65-.35-.88-.61c-.23-.26-.39-.57-.5-.94-.11-.36-.16-.76-.16-1.2 0-.42.05-.81.16-1.18.11-.36.26-.69.46-.97.21-.27.48-.49.8-.65.32-.16.71-.23 1.16-.23.38 0 .71.07 1 .19.3.13.54.31.74.54.2.23.35.5.45.82.1.32.16.67.16 1.04 0 .07 0 .16-.01.26s0 .2-.01.27h-4.1zm3.38-.62c0-.23-.03-.46-.09-.685s-.15-.42-.28-.59c-.13-.17-.29-.3-.49-.41-.2-.1-.44-.16-.73-.16-.52 0-.93.17-1.23.49-.29.32-.47.78-.53 1.36h3.36zm2.38-2.362c.06-.008.12-.014.18-.018.06-.002.11-.004.17-.004.06 0 .12.002.17.004.05.004.11.01.17.018.02.135.03.295.04.48 0 .183.01.35.01.5.15-.278.36-.513.63-.704s.62-.287 1.07-.287h.11c.04 0 .09.004.14.012.02.127.03.248.03.36 0 .12-.01.237-.03.35-.06-.01-.1-.013-.14-.013H76c-.51 0-.92.162-1.23.484s-.46.86-.46 1.61v2.948c-.04.008-.11.014-.183.018-.08.004-.14.006-.187.006-.04 0-.1-.002-.18-.006s-.146-.01-.19-.018v-5.74zm6.9-2.352l.32-.035.45-.045c.16-.014.32-.025.48-.033.16-.01.31-.02.44-.02.89 0 1.57.17 2.04.51.48.34.71.87.71 1.59 0 .23-.03.44-.1.63s-.17.36-.28.52c-.12.15-.26.28-.42.38-.16.1-.32.18-.5.23.23.03.46.09.68.19s.41.22.58.39c.17.17.31.38.41.63.1.25.15.55.15.9 0 .4-.08.75-.24 1.04s-.38.54-.67.73c-.28.19-.63.34-1.02.43-.39.09-.82.14-1.29.14-.12 0-.25 0-.4-.01l-.45-.03c-.15-.01-.3-.03-.45-.05l-.38-.05V25zm1.85 3.443c.61 0 1.06-.135 1.34-.404.28-.27.42-.62.42-1.05 0-.4-.15-.74-.45-1.02-.29-.27-.76-.41-1.4-.41-.19 0-.38.01-.56.03-.17.02-.31.03-.42.05v2.82h1.07zm-1.07 4.02c.11.014.25.027.43.04.17.01.36.015.55.015.29 0 .58-.025.86-.078s.53-.143.75-.27c.22-.13.39-.297.52-.508.13-.21.2-.473.2-.787s-.05-.58-.17-.793c-.11-.215-.26-.39-.46-.523-.19-.13-.42-.23-.68-.29-.26-.06-.54-.09-.84-.09h-1.15v3.29zm8.85-3.165c0-.493-.11-.856-.35-1.085s-.57-.344-1.03-.344c-.3 0-.57.03-.82.07s-.47.09-.66.15c-.04-.07-.07-.16-.1-.29s-.04-.25-.04-.36c.2-.06.44-.11.72-.15s.58-.06.88-.06c.73 0 1.27.16 1.62.48s.53.82.53 1.5v3.8c-.26.06-.58.11-.96.16s-.74.08-1.07.08c-.7 0-1.25-.14-1.65-.41-.4-.28-.6-.73-.6-1.35 0-.3.06-.57.18-.8.12-.23.28-.43.48-.6.21-.16.46-.28.75-.36s.61-.12.95-.12c.27 0 .5.01.7.03l.48.05v-.35zm0 1.003c-.12-.016-.28-.03-.48-.05-.19-.02-.37-.028-.54-.028-.56 0-1 .105-1.3.314-.3.21-.46.51-.46.9 0 .24.05.44.14.59.1.15.22.26.37.34.15.08.32.13.5.15.18.02.36.04.54.04.23 0 .45-.02.65-.04l.6-.09v-2.15zm2.46 2.004c.17.066.38.125.65.174s.51.08.75.08c.45 0 .8-.1 1.07-.3s.39-.44.39-.73c0-.2-.04-.37-.12-.5-.08-.13-.18-.24-.31-.33-.13-.09-.28-.16-.44-.22-.16-.05-.33-.11-.5-.17-.18-.06-.37-.12-.55-.2-.18-.07-.35-.17-.49-.28-.14-.11-.25-.26-.34-.42-.084-.16-.13-.37-.13-.62 0-.45.17-.82.5-1.11s.85-.43 1.55-.43c.29 0 .577.03.85.08.27.06.487.11.638.17-.03.22-.09.44-.15.64-.16-.05-.36-.1-.6-.15-.246-.05-.5-.08-.76-.08-.46 0-.784.08-.976.24-.19.16-.286.38-.286.64 0 .14.03.27.096.37s.15.19.26.26c.11.07.23.14.37.19.14.05.29.1.445.15.2.07.403.14.61.22s.39.18.56.31c.17.13.31.29.414.49.11.2.16.44.16.73 0 .27-.055.52-.16.74-.11.23-.26.41-.46.56-.2.16-.43.28-.7.36-.27.09-.57.13-.89.13-.36 0-.68-.02-.965-.07s-.505-.11-.68-.18c.047-.23.12-.45.216-.68zm5.72-1.97c0 .765.18 1.327.53 1.69.35.357.88.537 1.59.537.29 0 .55-.023.8-.072s.48-.115.72-.197c.04.082.07.184.09.305.02.12.04.23.05.326-.22.098-.47.172-.76.225-.29.06-.61.08-.96.08-.5 0-.92-.07-1.28-.22s-.65-.35-.88-.61c-.23-.26-.4-.57-.5-.94-.1-.36-.16-.76-.16-1.2 0-.42.05-.81.15-1.18s.26-.69.47-.97c.21-.27.47-.49.79-.65.32-.16.71-.23 1.16-.23.37 0 .71.07 1 .19.29.13.54.31.74.54.2.23.35.5.45.82.1.32.15.67.15 1.04 0 .07 0 .16-.01.26l-.01.27h-4.1zm3.38-.62c0-.23-.03-.46-.09-.686-.06-.22-.16-.42-.28-.59-.13-.17-.3-.3-.5-.41-.2-.1-.45-.16-.73-.16-.52 0-.93.17-1.23.49-.29.32-.47.78-.53 1.36h3.36zM104 24.86c.044-.006.106-.012.185-.016.08-.004.14-.006.186-.006.04 0 .1.002.18.006s.15.01.19.016v6.945c0 .195.03.348.07.457.05.107.1.188.17.236s.14.078.23.09c.08.012.16.016.23.016.08 0 .17-.004.26-.016s.16-.025.22-.04c.04.09.06.19.08.292.02.105.03.203.04.293-.1.037-.22.064-.35.08-.13.014-.25.02-.36.02-.16 0-.31-.017-.47-.05-.16-.033-.3-.098-.42-.19s-.22-.222-.3-.384c-.07-.16-.11-.38-.11-.64v-7.11z"/>
</svg>
